<?xml version="1.0" encoding="UTF-8"?>
<svg id="Capa_1" data-name="Capa 1" xmlns="http://www.w3.org/2000/svg" viewBox="0 0 571.78 609.68">
  <defs>
    <style>
      .cls-1 {
        fill: #fff;
      }
    </style>
  </defs>
  <path class="cls-1" d="M502.19,279.05V2.07H91.45c-4.35,0-8.74-.4-13.02-1.18C77.62.74,73.21,0,66.66,0,44.33,0,29.94,8.21,21.8,15.11,7.26,27.42,1.91,43.66,0,52.42l5.04,488.2c60.16,26.87,123.48,46.18,188.24,57.41,77.36,13.41,156.22,15.26,234.41,5.49l.31-.02c5.36,0,10.63.59,15.75,1.73,4.51-4.92,9.66-9.18,15.39-12.71l98.28-85.58c.49-.46,1.05-.96,1.62-1.46l5.74-5c2.23-1.94,4.58-3.73,7.01-5.37v-143.63c-38.63-1.53-69.59-33.43-69.59-72.43ZM75.26,74.05H24.41V23.19h50.85v50.85ZM331.35,542.18c0,10.3-8.38,18.68-18.68,18.68h-146.7c-10.3,0-18.68-8.38-18.68-18.68v-44.22c0-10.3,8.38-18.68,18.68-18.68h146.7c10.3,0,18.68,8.38,18.68,18.68v44.22ZM469.17,573.3h-50.85v-50.85h50.85v50.85ZM469.53,193.08h-48.15v-120.64h48.15v120.64Z"/>
</svg>