<?xml version="1.0" encoding="UTF-8"?>
<svg id="Capa_1" data-name="Capa 1" xmlns="http://www.w3.org/2000/svg" viewBox="0 0 574.93 613.52">
  <defs>
    <style>
      .cls-1 {
        fill: #fff;
      }
    </style>
  </defs>
  <path class="cls-1" d="M569.9,52.45c-1.9-8.76-7.25-25.02-21.81-37.34-14.75-12.49-32.53-15.11-44.85-15.11-6.56,0-10.96.74-11.78.89-4.28.78-8.66,1.18-13.02,1.18H67.7v276.98c0,38.36-29.96,69.84-67.7,72.32v145.09c1.74,1.26,3.43,2.59,5.07,4.01l5.74,5c.57.5,1.13,1,1.68,1.51l107.27,93.4c2.66,2.31,5.12,4.84,7.41,7.52,5.45-1.95,10.35-3.37,14.11-4.34l.51-.13.52.09c78.54,13.24,158.05,13.32,236.33.23,68.1-11.38,134.13-32.6,196.29-63.07l-5.04-488.25ZM218.62,363.53c-44.05,0-79.89-35.84-79.89-79.89s35.84-79.89,79.89-79.89,79.89,35.84,79.89,79.89-35.84,79.89-79.89,79.89ZM367.06,520.07c-44.05,0-79.89-35.84-79.89-79.89s35.84-79.89,79.89-79.89,79.89,35.84,79.89,79.89-35.84,79.89-79.89,79.89ZM367.06,212.65c-44.05,0-79.89-35.84-79.89-79.89s35.84-79.89,79.89-79.89,79.89,35.84,79.89,79.89-35.84,79.89-79.89,79.89Z"/>
</svg>