<?xml version="1.0" encoding="UTF-8"?>
<svg id="Capa_1" data-name="Capa 1" xmlns="http://www.w3.org/2000/svg" viewBox="0 0 1227.04 1305.63">
  <defs>
    <style>
      .cls-1 {
        fill: #00f3ff;
      }
    </style>
  </defs>
  <path class="cls-1" d="M1147.87,1059.25l79.17-251.17v-492.04c-40.46-59.62-276.73-239.09-287.42-246.32C865.21,19.35,776.04,12.06,663.14,2.82c-16.36-1.34-33.05-2.29-49.62-2.82-16.57.54-33.26,1.48-49.62,2.82-112.9,9.23-202.07,16.52-276.49,66.89-10.68,7.23-246.96,186.7-287.42,246.32v487.46l130.51,414.02c9.21,8.37,17.56,15.5,22.07,18.78,30.15,21.27,53.03,37.07,67.98,46.93,5.89,1.04,11.8,2.77,17.57,5.14,17.03,7.02,30.44,10.58,79.61,12.82,14.7.65,32.59,1.21,59.81,1.87,51.14,1.24,142.14,2.52,230.19,2.56h11.55c88.04-.05,179.05-1.32,230.18-2.56,27.23-.66,45.11-1.22,59.8-1.86,49.18-2.25,62.58-5.8,79.61-12.82,5.77-2.38,11.68-4.11,17.57-5.15,14.95-9.86,37.83-25.66,68.02-46.96,4.83-3.52,14.1-11.49,24.12-20.67l44.66-141.68c1.02-5.05,2.57-9.97,4.63-14.69ZM653.47,228.63c0,3.4-2.77,6.17-6.17,6.17h-57.44c-3.4,0-6.17-2.77-6.17-6.17v-57.44c0-3.4,2.77-6.17,6.17-6.17h57.44c3.4,0,6.17,2.77,6.17,6.17v57.44ZM823.12,151.68h-409.09v-71.47h409.09v71.47Z"/>
</svg>