<?xml version="1.0" encoding="UTF-8"?>
<svg id="Capa_1" data-name="Capa 1" xmlns="http://www.w3.org/2000/svg" viewBox="0 0 3269.18 2316.14">
  <defs>
    <style>
      .cls-1 {
        fill: #0b092b;
      }

      .cls-2 {
        fill: #ff5400;
      }
    </style>
  </defs>
  <path class="cls-1" d="M1928.76,2316.14c-5.54,0-11.05-.91-15.95-2.62-.05-.02-.18-.06-.22-.08-4.32-1.55-8.37-3.66-12.08-6.31-2.07-1.26-4.11-2.66-6.09-4.16-3.83-2.91-7.12-6.32-9.9-10.28l-27.85-.09c-32.11-.11-59.84-.2-77.91-.2-6.54,0-11.83.01-15.76.04h-1.51c-36.29,0-50.18-19.1-55.24-30.49-4.51-10.16-9.29-30.5,8.28-54.14h0c-3.41-10.26-3.76-21.38-.85-31.81,3.85-13.78,13.22-25.4,25.48-32.49-.87-6.5-.51-13.12,1.12-19.52,4.45-17.42,16.61-28.53,28.47-34.14-1.82-6.57-2.27-13.42-1.29-20.3,1.99-13.99,9.49-26.06,20.45-33.98-1.87-3.98-3.17-7.77-4.07-11.11-143.17,1.43-148.99,1.49-149.23,1.49-.2,0-.36,0-118.18-1.18-.89,3.26-2.17,6.94-3.98,10.8,10.96,7.93,18.46,20,20.45,33.99.98,6.88.53,13.73-1.29,20.3,11.85,5.6,24.02,16.71,28.46,34.13,1.63,6.4,2,13.03,1.13,19.52,12.27,7.08,21.63,18.71,25.49,32.49,2.91,10.42,2.56,21.54-.85,31.79h0c17.56,23.65,12.79,43.99,8.28,54.15-5.06,11.39-18.95,30.5-55.09,30.5-.58,0-1.12,0-1.61,0-3.93-.03-9.25-.04-15.82-.04-17.77,0-44.45.09-78.22.2l-27.52.09c-2.79,3.96-6.07,7.37-9.9,10.28-1.96,1.49-4,2.89-6.08,4.16-3.71,2.64-7.74,4.75-11.99,6.28-.15.05-.34.12-.55.19-3.41,1.17-8.87,2.54-15.71,2.54-.53,0-1.06,0-1.58-.02-.24,0-.49,0-.73,0-7.36,0-13.17-1.57-16.74-2.88-.09-.03-.18-.07-.26-.1-4.29-1.62-8.3-3.8-11.97-6.5-2.05-1.3-4.07-2.73-6.02-4.26-3.78-2.97-7.01-6.43-9.73-10.43l-28.05-.55c-45.81-.9-78.9-1.55-93.45-1.69-4.26-.04-14.23-.13-24.7-3.49-14.91-4.79-25.82-14.44-31.55-27.92-4.35-10.23-8.79-30.65,9.16-54h0c-3.24-10.31-3.41-21.44-.33-31.81,4.07-13.7,13.63-25.17,26.02-32.05-.77-6.51-.3-13.13,1.44-19.52,4.72-17.32,17.05-28.23,28.98-33.64-1.69-6.58-2.01-13.44-.92-20.34,2.22-13.95,9.92-25.9,21-33.65-1.85-4.1-3.1-7.99-3.94-11.4l-113.41-1.14c-13.52,3.86-27.41,5.82-41.33,5.82-47.8,0-92.15-23.64-115.75-61.68-9.46-15.26-15.35-31.92-17.6-49.75l-341.9,66.97c-7.11,1.39-14.38,2.1-21.62,2.1-12.92,0-25.63-2.2-37.8-6.54l-.69-.25c-40.59-14.49-97.27-44.83-136.73-107.08-10.27-16.19-18.59-33.42-24.85-51.43-2.04.27-4.28.44-6.69.44-.5,0-1,0-1.51-.02-.26,0-.52,0-.78,0-7.29,0-13.05-1.54-16.59-2.83l-.44-.16c-4.21-1.58-8.21-3.75-11.88-6.45-2.05-1.29-4.07-2.72-6.02-4.25-3.79-2.97-7.02-6.43-9.75-10.43l-27.48-.51c-46.13-.85-79.46-1.47-94.01-1.59-4.26-.03-14.23-.11-24.7-3.46-14.92-4.77-25.84-14.41-31.58-27.89-4.36-10.23-8.82-30.63,9.1-54.01h0c-3.25-10.31-3.44-21.44-.36-31.82,4.06-13.7,13.6-25.18,25.98-32.08-.77-6.51-.31-13.13,1.42-19.51,4.7-17.33,17.01-28.25,28.94-33.68-1.7-6.58-2.03-13.44-.94-20.34,2.2-13.95,9.89-25.91,20.96-33.67-1.66-3.68-2.84-7.19-3.68-10.33H40c-10.69,0-20.73-4.16-28.29-11.72C4.16,1507.04,0,1496.99,0,1486.31l.03-632.8c0-1.96.15-3.94.44-5.88,3.05-20.61,15.22-72.85,62.04-112.48,41.28-34.95,87.71-42.28,119.38-42.28,11.9,0,21.59,1.04,28.04,2.02h482.26c22.06,0,40,17.94,40,40v309.48h173.88v-476.01c0-7.9,2.31-15.56,6.69-22.14l.41-.62c43.22-65.04,86.8-130.4,129.51-194.27,141.94-212.22,156.99-231.79,201.35-261.82C1343.44,22.23,1451.02,13.43,1575.59,3.24c19.08-1.56,38.5-2.64,57.72-3.22.4-.01.85-.02,1.3-.02.39,0,.77,0,1.13.01,19.33.58,38.77,1.67,57.84,3.23,124.57,10.19,232.15,18.99,331.57,86.27,44.36,30.02,59.41,49.6,201.35,261.82,42.91,64.16,86.48,129.52,129.51,194.26l.42.64c4.37,6.57,6.68,14.23,6.68,22.13v476.01h173.88v-309.48c0-22.06,17.94-40,40-40h482.26c6.45-.98,16.14-2.02,28.04-2.02,31.68,0,78.1,7.34,119.39,42.28,46.81,39.63,58.98,91.87,62.04,112.49.15,1.02.26,2.01.33,3l.03.38c.07.99.1,1.94.1,2.86v632.43c0,22.06-17.94,40-40,40h-170.13c-.89,3.61-2.26,7.83-4.36,12.29,10.97,7.91,18.48,19.97,20.49,33.96.99,6.88.54,13.73-1.27,20.31,11.85,5.59,24.04,16.69,28.5,34.1,1.64,6.4,2.01,13.02,1.15,19.52,12.28,7.07,21.65,18.68,25.52,32.46,2.93,10.42,2.59,21.54-.81,31.8h0c17.6,23.63,12.84,43.98,8.34,54.14-5.05,11.41-18.97,30.56-55.34,30.56h-1.16c-3.03-.02-6.63-.03-10.91-.03-17.63,0-46.47.13-82.98.29l-27.84.12c-2.78,3.96-6.07,7.38-9.9,10.3-1.97,1.5-4,2.89-6.06,4.16-3.7,2.64-7.72,4.75-11.97,6.29l-.6.21c-4.93,1.68-10.34,2.55-15.74,2.55-.51,0-1.01,0-1.52-.02-.26,0-.53,0-.79,0-5.8,0-11.57-.99-16.67-2.86-.13-.05-.3-.11-.46-.17-.35-.13-.71-.27-1.06-.41-6.37,19.11-15.03,37.33-25.88,54.45-39.46,62.25-96.15,92.6-136.76,107.09l-.64.23c-12.18,4.35-24.9,6.55-37.82,6.55-7.23,0-14.5-.7-21.59-2.09l-341.94-66.98c-2.25,17.84-8.14,34.5-17.6,49.76-23.57,38.04-67.92,61.67-115.74,61.67-13.92,0-27.81-1.96-41.33-5.81l-82.15.82c-.85,3.48-2.11,7.48-4.01,11.69,11.09,7.74,18.79,19.69,21,33.65,1.09,6.87.75,13.73-.96,20.34,11.96,5.42,24.3,16.33,29.02,33.66,1.74,6.38,2.21,13,1.44,19.51,12.39,6.88,21.94,18.35,26.01,32.05,3.08,10.37,2.91,21.5-.33,31.81h0c17.95,23.36,13.51,43.77,9.17,54-5.73,13.48-16.63,23.14-31.51,27.93-10.46,3.36-20.42,3.45-24.67,3.49-14.57.13-47.69.79-93.54,1.69l-28.02.55c-2.72,4-5.95,7.47-9.73,10.44-1.95,1.53-3.96,2.96-6.01,4.25-3.66,2.7-7.66,4.88-11.89,6.47l-.29.11c-3.58,1.32-9.41,2.9-16.79,2.9-.24,0-.49,0-.73,0-.53.02-1.05.02-1.57.02Z"/>
  <path class="cls-1" d="M1928.76,2316.14c-5.54,0-11.05-.91-15.95-2.62-.05-.02-.18-.06-.22-.08-4.32-1.55-8.37-3.66-12.08-6.31-2.07-1.26-4.11-2.66-6.09-4.16-3.83-2.91-7.12-6.32-9.9-10.28l-27.85-.09c-32.11-.11-59.84-.2-77.91-.2-6.54,0-11.83.01-15.76.04h-1.51c-36.29,0-50.18-19.1-55.24-30.49-4.51-10.16-9.29-30.5,8.28-54.14h0c-3.41-10.26-3.76-21.38-.85-31.81,3.85-13.78,13.22-25.4,25.48-32.49-.87-6.5-.51-13.12,1.12-19.52,4.45-17.42,16.61-28.53,28.47-34.14-1.82-6.57-2.27-13.42-1.29-20.3,1.99-13.99,9.49-26.06,20.45-33.98-1.87-3.98-3.17-7.77-4.07-11.11-143.17,1.43-148.99,1.49-149.23,1.49-.2,0-.36,0-118.18-1.18-.89,3.26-2.17,6.94-3.98,10.8,10.96,7.93,18.46,20,20.45,33.99.98,6.88.53,13.73-1.29,20.3,11.85,5.6,24.02,16.71,28.46,34.13,1.63,6.4,2,13.03,1.13,19.52,12.27,7.08,21.63,18.71,25.49,32.49,2.91,10.42,2.56,21.54-.85,31.79h0c17.56,23.65,12.79,43.99,8.28,54.15-5.06,11.39-18.95,30.5-55.09,30.5-.58,0-1.12,0-1.61,0-3.93-.03-9.25-.04-15.82-.04-17.77,0-44.45.09-78.22.2l-27.52.09c-2.79,3.96-6.07,7.37-9.9,10.28-1.96,1.49-4,2.89-6.08,4.16-3.71,2.64-7.74,4.75-11.99,6.28-.15.05-.34.12-.55.19-3.41,1.17-8.87,2.54-15.71,2.54-.53,0-1.06,0-1.58-.02-.24,0-.49,0-.73,0-7.36,0-13.17-1.57-16.74-2.88-.09-.03-.18-.07-.26-.1-4.29-1.62-8.3-3.8-11.97-6.5-2.05-1.3-4.07-2.73-6.02-4.26-3.78-2.97-7.01-6.43-9.73-10.43l-28.05-.55c-45.81-.9-78.9-1.55-93.45-1.69-4.26-.04-14.23-.13-24.7-3.49-14.91-4.79-25.82-14.44-31.55-27.92-4.35-10.23-8.79-30.65,9.16-54h0c-3.24-10.31-3.41-21.44-.33-31.81,4.07-13.7,13.63-25.17,26.02-32.05-.77-6.51-.3-13.13,1.44-19.52,4.72-17.32,17.05-28.23,28.98-33.64-1.69-6.58-2.01-13.44-.92-20.34,2.22-13.95,9.92-25.9,21-33.65-1.85-4.1-3.1-7.99-3.94-11.4l-113.41-1.14c-13.52,3.86-27.41,5.82-41.33,5.82-47.8,0-92.15-23.64-115.75-61.68-9.46-15.26-15.35-31.92-17.6-49.75l-341.9,66.97c-7.11,1.39-14.38,2.1-21.62,2.1-12.92,0-25.63-2.2-37.8-6.54l-.69-.25c-40.59-14.49-97.27-44.83-136.73-107.08-10.27-16.19-18.59-33.42-24.85-51.43-2.04.27-4.28.44-6.69.44-.5,0-1,0-1.51-.02-.26,0-.52,0-.78,0-7.29,0-13.05-1.54-16.59-2.83l-.44-.16c-4.21-1.58-8.21-3.75-11.88-6.45-2.05-1.29-4.07-2.72-6.02-4.25-3.79-2.97-7.02-6.43-9.75-10.43l-27.48-.51c-46.13-.85-79.46-1.47-94.01-1.59-4.26-.03-14.23-.11-24.7-3.46-14.92-4.77-25.84-14.41-31.58-27.89-4.36-10.23-8.82-30.63,9.1-54.01h0c-3.25-10.31-3.44-21.44-.36-31.82,4.06-13.7,13.6-25.18,25.98-32.08-.77-6.51-.31-13.13,1.42-19.51,4.7-17.33,17.01-28.25,28.94-33.68-1.7-6.58-2.03-13.44-.94-20.34,2.2-13.95,9.89-25.91,20.96-33.67-1.66-3.68-2.84-7.19-3.68-10.33H40c-10.69,0-20.73-4.16-28.29-11.72C4.16,1507.04,0,1496.99,0,1486.31l.03-632.8c0-1.96.15-3.94.44-5.88,3.05-20.61,15.22-72.85,62.04-112.48,41.28-34.95,87.71-42.28,119.38-42.28,11.9,0,21.59,1.04,28.04,2.02h482.26c22.06,0,40,17.94,40,40v309.48h173.88v-476.01c0-7.9,2.31-15.56,6.69-22.14l.41-.62c43.22-65.04,86.8-130.4,129.51-194.27,141.94-212.22,156.99-231.79,201.35-261.82C1343.44,22.23,1451.02,13.43,1575.59,3.24c19.08-1.56,38.5-2.64,57.72-3.22.4-.01.85-.02,1.3-.02.39,0,.77,0,1.13.01,19.33.58,38.77,1.67,57.84,3.23,124.57,10.19,232.15,18.99,331.57,86.27,44.36,30.02,59.41,49.6,201.35,261.82,42.91,64.16,86.48,129.52,129.51,194.26l.42.64c4.37,6.57,6.68,14.23,6.68,22.13v476.01h173.88v-309.48c0-22.06,17.94-40,40-40h482.26c6.45-.98,16.14-2.02,28.04-2.02,31.68,0,78.1,7.34,119.39,42.28,46.81,39.63,58.98,91.87,62.04,112.49.15,1.02.26,2.01.33,3l.03.38c.07.99.1,1.94.1,2.86v632.43c0,22.06-17.94,40-40,40h-170.13c-.89,3.61-2.26,7.83-4.36,12.29,10.97,7.91,18.48,19.97,20.49,33.96.99,6.88.54,13.73-1.27,20.31,11.85,5.59,24.04,16.69,28.5,34.1,1.64,6.4,2.01,13.02,1.15,19.52,12.28,7.07,21.65,18.68,25.52,32.46,2.93,10.42,2.59,21.54-.81,31.8h0c17.6,23.63,12.84,43.98,8.34,54.14-5.05,11.41-18.97,30.56-55.34,30.56h-1.16c-3.03-.02-6.63-.03-10.91-.03-17.63,0-46.47.13-82.98.29l-27.84.12c-2.78,3.96-6.07,7.38-9.9,10.3-1.97,1.5-4,2.89-6.06,4.16-3.7,2.64-7.72,4.75-11.97,6.29l-.6.21c-4.93,1.68-10.34,2.55-15.74,2.55-.51,0-1.01,0-1.52-.02-.26,0-.53,0-.79,0-5.8,0-11.57-.99-16.67-2.86-.13-.05-.3-.11-.46-.17-.35-.13-.71-.27-1.06-.41-6.37,19.11-15.03,37.33-25.88,54.45-39.46,62.25-96.15,92.6-136.76,107.09l-.64.23c-12.18,4.35-24.9,6.55-37.82,6.55-7.23,0-14.5-.7-21.59-2.09l-341.94-66.98c-2.25,17.84-8.14,34.5-17.6,49.76-23.57,38.04-67.92,61.67-115.74,61.67-13.92,0-27.81-1.96-41.33-5.81l-82.15.82c-.85,3.48-2.11,7.48-4.01,11.69,11.09,7.74,18.79,19.69,21,33.65,1.09,6.87.75,13.73-.96,20.34,11.96,5.42,24.3,16.33,29.02,33.66,1.74,6.38,2.21,13,1.44,19.51,12.39,6.88,21.94,18.35,26.01,32.05,3.08,10.37,2.91,21.5-.33,31.81h0c17.95,23.36,13.51,43.77,9.17,54-5.73,13.48-16.63,23.14-31.51,27.93-10.46,3.36-20.42,3.45-24.67,3.49-14.57.13-47.69.79-93.54,1.69l-28.02.55c-2.72,4-5.95,7.47-9.73,10.44-1.95,1.53-3.96,2.96-6.01,4.25-3.66,2.7-7.66,4.88-11.89,6.47l-.29.11c-3.58,1.32-9.41,2.9-16.79,2.9-.24,0-.49,0-.73,0-.53.02-1.05.02-1.57.02Z"/>
  <g>
    <path class="cls-2" d="M2797.84,1182.35c-44.05,0-79.89-35.84-79.89-79.89s35.84-79.89,79.89-79.89,79.89,35.84,79.89,79.89-35.84,79.89-79.89,79.89ZM2797.84,1027.57c-41.29,0-74.89,33.6-74.89,74.89s33.6,74.89,74.89,74.89,74.89-33.6,74.89-74.89-33.6-74.89-74.89-74.89Z"/>
    <path class="cls-2" d="M2946.29,1031.47c-44.05,0-79.89-35.84-79.89-79.89s35.84-79.89,79.89-79.89,79.89,35.84,79.89,79.89-35.84,79.89-79.89,79.89ZM2946.29,876.69c-41.29,0-74.89,33.6-74.89,74.89s33.6,74.89,74.89,74.89,74.89-33.6,74.89-74.89-33.6-74.89-74.89-74.89Z"/>
    <path class="cls-2" d="M2946.29,1338.89c-44.05,0-79.89-35.84-79.89-79.89s35.84-79.89,79.89-79.89,79.89,35.84,79.89,79.89-35.84,79.89-79.89,79.89ZM2946.29,1184.11c-41.29,0-74.89,33.6-74.89,74.89s33.6,74.89,74.89,74.89,74.89-33.6,74.89-74.89-33.6-74.89-74.89-74.89Z"/>
    <path class="cls-2" d="M1839.13,437.67h-409.09v-71.47h409.09v71.47ZM1435.04,432.67h399.09v-61.47h-399.09v61.47Z"/>
    <path class="cls-2" d="M1366.55,2287.14c-.38,0-.8-.02-1.25-.06-2.31.18-3.71-.28-3.98-.38-1.17-.44-2.24-1.11-3.21-2.01-1.36-.75-2.74-1.67-4.1-2.74-1.76-1.38-4-4.76-5.95-18.46-19.92-.39-38.42-.75-55.22-1.08-46.28-.91-79.72-1.57-94.42-1.71-5.1-.05-16.87-.16-19.8-7.06-1.81-4.27.22-9.77,6.04-16.37l13.36-26.19-3.35-.03-.69-.58c-4.68-3.94-6.64-10.06-5-15.6,2.04-6.87,9.19-11.27,16.67-10.3l4.71.04,14.23-31.56-5.71-.05-.73-1.16c-.66-1.05-2.71-4.83-1.46-9.41,1.74-6.37,8.14-8.23,8.41-8.3l.34-.1,11.27.09,18.98-39.07-5.23-.04-.68-.55c-.21-.17-5.07-4.2-4.11-10.27.79-4.97,5.03-8.76,10.31-9.22h.12s6.04.04,6.04.04l19.26-33.07c-3.61-.75-8.51-2.55-12.77-6.82-5.18-5.2-6.66-11.27-7.07-14.43l-.02-.17.26-31.26,211.9,1.73-.28,31.43c-.47,3.15-2.04,9.2-7.31,14.32-4.33,4.2-9.26,5.92-12.88,6.61l18.72,33.38,6.16.06c5.27.55,9.45,4.41,10.16,9.39.86,6.07-4.06,10.03-4.27,10.2l-.69.54-5.24-.04,18.33,39.38,11.27.09.34.1c.27.08,6.64,2.04,8.28,8.44,1.17,4.6-.94,8.35-1.61,9.39l-.75,1.15-5.71-.05,13.71,31.79,4.71.04c7.49-.85,14.57,3.67,16.5,10.57,1.56,5.56-.5,11.66-5.25,15.52l-.7.57-3.35-.03,12.93,26.41c5.71,6.69,7.65,12.23,5.77,16.47-3.05,6.85-14.82,6.77-19.84,6.73-14.79-.1-48.26,0-94.59.16-16.78.06-35.26.12-55.15.18-2.17,13.66-4.47,17-6.25,18.36-1.37,1.05-2.77,1.94-4.14,2.67-.98.88-2.07,1.53-3.23,1.95-.23.08-1.19.38-2.75.38ZM1365.34,2282.06l.27.03c1.34.15,2.09-.06,2.09-.06.53-.19,1.1-.56,1.66-1.09l.26-.25.32-.17c1.22-.62,2.46-1.42,3.71-2.36.4-.3,2.5-2.56,4.66-17.24l.31-2.13h2.15c20.71-.07,39.91-.13,57.29-.19,46.35-.15,79.83-.27,94.57-.16,9.05.05,14.17-1.2,15.31-3.76.99-2.23-.95-6.5-5.2-11.42l-.21-.24-16.77-34.25,9.59.08c2.74-2.6,3.89-6.33,2.94-9.73-1.28-4.59-6.11-7.57-11.24-6.94l-.16.02-8.29-.07-18.04-41.82,10.5.09c.42-1.02.8-2.55.36-4.27-.79-3.1-3.64-4.43-4.57-4.78l-13.66-.11-23.01-49.41,11.26.09c.81-.88,2.18-2.73,1.86-5.02-.37-2.63-2.73-4.76-5.62-5.11l-8.69-.07-23.99-42.8,4.13-.12c2.38-.07,8.45-.75,13.48-5.64,4.12-4,5.41-8.73,5.82-11.3l.21-25.9-201.9-1.65-.21,25.9c.36,2.58,1.58,7.32,5.64,11.39,4.95,4.97,11.01,5.76,13.39,5.86l4.13.19-24.69,42.4-8.69-.07c-2.89.3-5.28,2.4-5.7,5.02-.36,2.28.97,4.16,1.77,5.05l11.26.09-23.81,49.03-13.67-.11c-.93.34-3.81,1.62-4.65,4.71-.47,1.71-.12,3.25.29,4.28l10.5.09-18.73,41.52-8.45-.09c-5.12-.72-9.99,2.18-11.35,6.75-1,3.38.09,7.13,2.78,9.77l9.59.08-17.33,33.97-.21.24c-4.33,4.85-6.34,9.09-5.38,11.33,1.1,2.58,6.2,3.93,15.17,4.01,14.8.14,48.25.8,94.55,1.71,17.4.34,36.62.72,57.36,1.12l2.15.04.28,2.14c1.91,14.71,3.98,17,4.37,17.31,1.23.97,2.46,1.78,3.67,2.43l.32.17.26.25c.55.54,1.11.91,1.72,1.14-.03,0,.41.11,1.18.11.24,0,.52-.01.83-.04l.27-.03Z"/>
    <path class="cls-2" d="M1923.7,2287.14c-1.56,0-2.51-.3-2.73-.37-1.18-.42-2.26-1.08-3.25-1.96-1.38-.73-2.77-1.63-4.14-2.67-1.78-1.35-4.07-4.7-6.25-18.36-19.9-.06-38.37-.12-55.15-.18-46.33-.15-79.81-.27-94.52-.16-5.1.04-16.87.12-19.92-6.73-1.88-4.24.06-9.78,5.77-16.47l12.93-26.41-3.35.03-.7-.57c-4.75-3.86-6.81-9.96-5.25-15.52,1.93-6.9,9-11.42,16.5-10.57l3.06-.02.02,5,.05-5h1.57s13.71-31.8,13.71-31.8l-5.71.05-.75-1.15c-.67-1.04-2.79-4.78-1.61-9.39,1.63-6.4,8.01-8.36,8.28-8.44l.34-.1,11.27-.09,18.33-39.38-5.24.04-.69-.54c-.21-.17-5.14-4.13-4.27-10.2.71-4.98,4.88-8.84,10.16-9.39h.24s5.92-.06,5.92-.06l18.72-33.38c-3.62-.69-8.55-2.41-12.88-6.61-5.27-5.11-6.84-11.16-7.31-14.32l-.03-.35-.25-31.08,211.9-1.73.26,31.26-.02.17c-.42,3.16-1.89,9.23-7.07,14.43-4.26,4.27-9.16,6.07-12.77,6.82l19.26,33.07,6.04-.05h.12c5.28.48,9.52,4.27,10.31,9.23.96,6.06-3.9,10.1-4.11,10.27l-.68.55-5.23.04,18.98,39.07,11.27-.09.34.1c.27.08,6.67,1.93,8.41,8.3,1.25,4.58-.8,8.36-1.46,9.41l-.73,1.16-5.71.05c3.51,7.77,11.82,26.2,14.23,31.56l4.71-.04c7.48-.97,14.62,3.43,16.67,10.3,1.65,5.54-.31,11.66-5,15.6l-.69.58-3.35.03,13.36,26.19c5.82,6.6,7.85,12.11,6.04,16.37-2.93,6.9-14.7,7.01-19.73,7.06-14.78.14-48.22.8-94.5,1.71-16.8.33-35.3.7-55.22,1.08-1.95,13.7-4.19,17.07-5.95,18.46-1.36,1.07-2.74,1.99-4.1,2.74-.97.9-2.04,1.57-3.19,2-.29.11-1.7.57-4,.39-.45.04-.87.06-1.25.06ZM1922.63,2282.05s.76.18,2.01.03l.27-.03.27.03c1.34.13,2.08-.09,2.09-.09.53-.2,1.09-.58,1.64-1.12l.26-.25.32-.17c1.2-.64,2.44-1.46,3.67-2.43.39-.31,2.46-2.6,4.37-17.31l.28-2.14,2.15-.04c20.74-.4,39.96-.78,57.36-1.12,46.3-.91,79.75-1.57,94.48-1.71,9.05-.08,14.15-1.43,15.25-4.01.96-2.25-1.06-6.48-5.38-11.33l-.21-.24-17.33-33.97,9.59-.08c2.7-2.65,3.79-6.4,2.78-9.77-1.36-4.57-6.24-7.47-11.35-6.75l-.33.02-8.12.07-.67-1.49s-16.31-36.16-16.48-36.54l-1.58-3.5,10.5-.09c.41-1.03.76-2.57.29-4.28-.84-3.08-3.71-4.37-4.65-4.71l-13.66.11-23.81-49.03,11.26-.09c.8-.89,2.14-2.77,1.77-5.05-.42-2.62-2.8-4.72-5.7-5.02l-8.69.07-24.69-42.4,4.13-.19c2.38-.11,8.43-.89,13.39-5.86,4.05-4.07,5.27-8.82,5.63-11.39l-.21-25.9-201.9,1.65.21,25.9c.41,2.57,1.7,7.3,5.82,11.3,5.04,4.89,11.11,5.58,13.48,5.64l4.13.12-23.99,42.8-8.69.07c-2.89.35-5.24,2.48-5.62,5.11-.32,2.29,1.04,4.14,1.86,5.02l11.26-.09-23.01,49.41-13.67.11c-.92.35-3.78,1.68-4.57,4.78-.44,1.72-.06,3.25.36,4.27l10.5-.09-18.04,41.82-8.29.07-.16-.02c-5.12-.64-9.95,2.35-11.24,6.94-.95,3.39.2,7.13,2.94,9.73l9.59-.08-16.77,34.25-.21.24c-4.25,4.92-6.19,9.19-5.2,11.42,1.14,2.56,6.26,3.83,15.24,3.77,14.81-.1,48.3,0,94.65.16,17.38.06,36.58.12,57.29.18h2.15s.31,2.14.31,2.14c2.15,14.67,4.26,16.93,4.66,17.24,1.24.95,2.49,1.74,3.71,2.37l.32.17.26.25c.56.53,1.12.89,1.74,1.11,0,0,0,0,0,0Z"/>
    <path class="cls-2" d="M400.66,1761.88c-7,.03-14.21.06-21.61.09h-2.15s-.31,2.14-.31,2.14c-2.14,14.68-4.24,16.94-4.64,17.24-1.24.95-2.49,1.74-3.7,2.37l-.32.17-.26.25c-.56.53-1.12.9-1.65,1.09,0,0-.76.21-2.09.06l-.27-.03-.27.03c-.31.03-.6.04-.84.04-.78,0-1.2-.11-1.17-.11-.61-.23-1.17-.6-1.72-1.14l-.26-.25-.32-.17c-1.21-.64-2.44-1.46-3.67-2.42-.39-.31-2.46-2.6-4.39-17.31l-.28-2.13-2.15-.04c-20.74-.38-39.96-.73-57.35-1.05-46.3-.86-79.76-1.48-94.56-1.6-8.97-.07-14.08-1.42-15.18-4-.96-2.25,1.05-6.48,5.37-11.34l.21-.24,17.29-33.99-9.59-.07c-2.7-2.64-3.8-6.39-2.8-9.77,1.35-4.57,6.23-7.48,11.34-6.76l8.45.08,18.68-41.54-10.5-.07c-.41-1.03-.76-2.56-.3-4.28.84-3.09,3.72-4.37,4.64-4.71l13.67.1,23.76-49.06-11.26-.08c-.8-.89-2.14-2.77-1.78-5.05.41-2.62,2.8-4.72,5.69-5.02l8.69.06,24.64-42.43-4.13-.18c-2.37-.1-8.43-.88-13.4-5.85-4.06-4.06-5.28-8.81-5.65-11.38l.18-25.9,201.9,1.42-.18,25.9c-.4,2.57-1.69,7.3-5.81,11.3-5.03,4.9-11.1,5.59-13.48,5.66l-4.13.12,14.43,25.66c1.09-1.47,2.19-2.92,3.29-4.35l-9.49-16.88c3.62-.69,8.54-2.42,12.87-6.63,5.26-5.12,6.83-11.17,7.29-14.32l.22-28.63h-211.91l-.19,26.97.02.17c.42,3.16,1.9,9.23,7.09,14.42,4.26,4.27,9.17,6.06,12.77,6.81l-19.22,33.09-6.04-.04h-.12c-5.28.48-9.51,4.28-10.3,9.25-.96,6.08,3.91,10.1,4.12,10.27l.68.55,5.23.04-18.93,39.09-11.27-.08-.34.1c-2.47.69-7.02,3.22-8.4,8.31-1.25,4.59.81,8.36,1.47,9.41l.73,1.16,5.71.04-14.2,31.58-4.71-.03c-7.48-.96-14.62,3.45-16.66,10.32-1.64,5.54.33,11.66,5.01,15.6l.69.58,3.35.02-13.33,26.21c-5.81,6.61-7.84,12.12-6.02,16.38,2.94,6.9,14.71,7,19.81,7.04,14.7.12,48.15.74,94.43,1.6,16.8.31,35.29.65,55.22,1.02,1.97,13.69,4.21,17.07,5.97,18.45,1.36,1.07,2.74,1.99,4.1,2.74.97.89,2.05,1.56,3.22,2.01.27.1,1.68.56,3.98.37.44.04.85.06,1.23.06,1.56,0,2.53-.3,2.78-.38,1.16-.42,2.24-1.07,3.22-1.95,1.38-.73,2.77-1.63,4.14-2.68,1.78-1.36,4.07-4.7,6.23-18.37,6.81-.03,13.44-.06,19.9-.08-.17-1.68-.32-3.34-.45-5Z"/>
    <path class="cls-2" d="M3076.24,1716.83l3.35.02.7-.57c4.74-3.87,6.79-9.96,5.23-15.53-1.94-6.9-9.01-11.41-16.51-10.55l-3.08-.02-.02,5,3.39.02.16-.02c5.12-.64,9.96,2.33,11.24,6.92.94,3.34-.24,7.15-2.94,9.73l-9.58-.07,16.81,34.23.21.24c4.25,4.91,6.2,9.18,5.21,11.41-1.14,2.56-6.3,3.83-15.31,3.78-14.73-.09-48.16.06-94.44.27-17.41.08-36.66.17-57.42.25h-2.15s-.31,2.14-.31,2.14c-2.14,14.68-4.24,16.94-4.64,17.24-1.24.95-2.49,1.74-3.7,2.37l-.32.17-.26.25c-.56.53-1.12.9-1.65,1.09,0,0-.76.21-2.09.06l-.27-.03-.27.03c-.31.03-.6.04-.84.04-.77,0-1.19-.12-1.17-.11-.61-.23-1.17-.6-1.72-1.14l-.26-.25-.32-.17c-1.21-.64-2.44-1.46-3.67-2.42-.39-.31-2.46-2.6-4.39-17.31l-.28-2.13-2.15-.04c-11.97-.22-23.42-.43-34.32-.63-.12,1.65-.27,3.32-.43,4.99,10.35.19,21.2.39,32.52.6,1.97,13.69,4.21,17.07,5.97,18.45,1.36,1.07,2.74,1.99,4.1,2.74.97.89,2.05,1.56,3.22,2.01.27.1,1.67.56,3.98.37.45.04.87.06,1.25.06,1.48,0,2.42-.27,2.76-.39,1.16-.42,2.24-1.07,3.22-1.95,1.38-.73,2.77-1.63,4.14-2.68,1.78-1.36,4.07-4.7,6.23-18.37,19.95-.08,38.46-.17,55.28-.24,46.27-.21,79.69-.36,94.46-.27,5.02.02,16.8.1,19.83-6.76,1.88-4.24-.07-9.77-5.79-16.46l-12.97-26.39Z"/>
    <path class="cls-2" d="M3050.56,1658.41l5.71.04.75-1.15c.67-1.04,2.78-4.79,1.6-9.39-1.31-5.1-5.82-7.7-8.28-8.43l-.34-.1-11.27-.08-18.38-39.35,5.23.04.69-.54c.21-.17,5.13-4.12,4.26-10.2-.71-4.98-4.89-8.83-10.17-9.38l-6.16-.05-18.75-33.36c3.62-.69,8.55-2.42,12.87-6.63,5.26-5.12,6.83-11.17,7.29-14.32l.22-28.63h-211.91l-.19,26.97.02.17c.42,3.16,1.9,9.23,7.09,14.42,4.26,4.27,9.17,6.06,12.77,6.81l-17.04,29.34c1.05,1.5,2.09,3.03,3.13,4.57l22.2-38.22-4.13-.18c-2.37-.1-8.43-.88-13.4-5.85-4.06-4.06-5.28-8.81-5.65-11.38l.18-25.9,201.9,1.42-.18,25.9c-.4,2.57-1.69,7.3-5.81,11.3-5.03,4.9-11.1,5.59-13.48,5.66l-4.13.12,24.04,42.77,8.69.06c2.89.35,5.25,2.48,5.62,5.1.33,2.29-1.04,4.15-1.85,5.03l-11.27-.08,23.07,49.39,13.66.1c.93.36,3.78,1.68,4.58,4.78.44,1.72.07,3.25-.36,4.28l-10.5-.07,1.53,3.52c.17.38,15.92,36.78,15.92,36.78l.65,1.5,4.87.03.05-5h-1.63c-2.33-5.41-10.36-23.96-13.75-31.78Z"/>
    <path class="cls-2" d="M2248.41,1301.47c-2.01,0-4.04.08-6.03.25h-12.09c-6.48,0-12.89.91-19.07,2.6,7.2-.16,14.38-.34,21.48-.54l2.63-.08v.42s320.8,0,320.8,0c-6.28-1.75-12.82-2.66-19.44-2.66h-288.27Z"/>
    <path class="cls-2" d="M2561.23,1309.13h-5.84c3.34.96,6.6,2.18,9.75,3.65l-3.91-3.65Z"/>
    <path class="cls-2" d="M2698.99,1419.21l-107.27-93.4c-.55-.51-1.11-1.01-1.68-1.51l-5.74-5c-5.02-4.37-10.58-7.99-16.51-10.81l136.62,118.97c.67-.25,1.33-.49,1.99-.72-2.29-2.68-4.76-5.21-7.41-7.52Z"/>
    <path class="cls-2" d="M3154.12,870.96l-.06-.5c-1.99-9.32-7.69-26.96-23.52-40.36-15.9-13.46-34.93-16.29-48.08-16.29-6.99,0-11.78.81-12.67.97-3.99.73-8.07,1.1-12.12,1.1h-415.74v281.98c0,37.22-30.28,67.5-67.5,67.5h-258.88c-37.22,0-67.5-30.28-67.5-67.5v-497.37l-.42-.63c-39.56-59.49-278.44-241.03-289.2-248.31-75.51-51.1-165.25-58.44-278.88-67.73-16.46-1.35-33.27-2.3-49.95-2.84h-.08s-.08,0-.08,0c-16.68.54-33.48,1.49-49.95,2.84-113.63,9.29-203.37,16.63-278.88,67.73-10.76,7.28-249.64,188.82-289.19,248.31l-.42.63v497.37c0,37.22-30.28,67.5-67.5,67.5h-258.88c-37.22,0-67.5-30.28-67.5-67.5v-281.98H201.4c-4.05,0-8.13-.37-12.12-1.1-.89-.16-5.69-.97-12.67-.97-23.84,0-39.31,8.86-48.08,16.29-15.82,13.4-21.53,31.03-23.52,40.35l-.06.27,5.08,491.95,1.46.66c60.98,27.38,125.2,47.04,190.89,58.43,77.79,13.49,157.11,15.35,235.73,5.54,4.06,0,8.04.4,11.91,1.09,1.18-1.51,2.4-2.96,3.69-4.36-5.12-1.14-10.39-1.73-15.75-1.73l-.31.02c-78.18,9.77-157.05,7.92-234.41-5.49-64.76-11.23-128.07-30.54-188.24-57.41l-5.04-488.2c1.91-8.76,7.26-25,21.8-37.31,8.14-6.89,22.53-15.11,44.85-15.11,6.56,0,10.96.74,11.78.89,4.28.78,8.67,1.18,13.02,1.18h410.74v276.98c0,39.98,32.52,72.5,72.5,72.5h258.88c39.98,0,72.5-32.52,72.5-72.5v-495.85c40.45-59.62,276.73-239.09,287.42-246.32,74.42-50.37,163.59-57.66,276.49-66.89,16.36-1.34,33.05-2.29,49.62-2.82,16.57.54,33.26,1.48,49.62,2.82,112.9,9.23,202.07,16.52,276.49,66.89,10.68,7.23,246.96,186.7,287.42,246.32v495.85c0,39.98,32.52,72.5,72.5,72.5h258.88c39.98,0,72.5-32.52,72.5-72.5v-276.98h410.74c4.35,0,8.74-.4,13.02-1.18.82-.15,5.22-.89,11.78-.89,12.32,0,30.1,2.62,44.85,15.11,14.56,12.32,19.9,28.58,21.81,37.34l5.04,488.25c-62.16,30.47-128.19,51.68-196.29,63.07-78.28,13.09-157.79,13.01-236.33-.23l-.52-.09-.51.13c-3.76.97-8.65,2.38-14.11,4.34,1.15,1.34,2.25,2.71,3.3,4.13,4.39-1.51,8.36-2.67,11.54-3.5,78.92,13.24,158.8,13.29,237.46.14,69.1-11.55,136.08-33.15,199.09-64.21l1.41-.7-5.07-491.65Z"/>
    <path class="cls-2" d="M3224.12,864.88l-.03-.37c-2.39-16.14-11.89-57-48.32-87.83-48.15-40.76-106.5-32.92-118.33-30.79h-485.51v349.48h-253.88v-516.01l-.42-.63c-43.09-64.84-86.64-130.17-129.44-194.16-137.91-206.2-152.16-224.96-190.52-250.93-90.72-61.4-193.46-69.8-312.41-79.53-18.37-1.5-37.09-2.55-55.66-3.11h-.08s-.08,0-.08,0c-18.56.56-37.29,1.6-55.66,3.11-118.95,9.73-221.69,18.13-312.41,79.53-38.36,25.96-52.61,44.72-190.52,250.93-42.75,63.92-86.3,129.24-129.44,194.16l-.42.63v516.01h-253.88v-349.48H201.62c-11.83-2.13-70.19-9.97-118.33,30.79-36.43,30.84-45.93,71.7-48.32,87.83l-.03,632.8h490.66c2.41-1.75,4.67-3.34,6.75-4.76-.01-.08-.02-.16-.03-.24H39.94v-627.25c2.35-15.7,11.58-54.95,46.58-84.57,46.74-39.57,103.52-31.64,114.43-29.65l.22.04h480.96v349.48h263.88v-519.5c43-64.71,86.41-129.81,129.02-193.52,137.41-205.45,151.55-224.11,189.17-249.57,89.63-60.66,191.76-69.02,310.01-78.69,18.26-1.49,36.87-2.53,55.33-3.09,18.45.56,37.07,1.6,55.33,3.09,118.25,9.67,220.38,18.02,310.01,78.69,37.61,25.46,51.76,44.11,189.17,249.57,42.66,63.78,86.06,128.89,129.02,193.52v519.5h263.88v-349.48h480.74l.45-.04c10.91-1.99,67.69-9.92,114.43,29.65,34.99,29.62,44.22,68.87,46.58,84.57v627.25h-492.34c-.01.09-.02.18-.03.27,2.07,1.42,4.31,2.99,6.7,4.73h490.66v-632.43Z"/>
    <polygon class="cls-2" points="2534.7 1378.87 2529.07 1373.97 2534.7 1378.87 2534.7 1378.87"/>
    <path class="cls-2" d="M2654.58,1477.32l.22.19c-.04-.55-.08-1.09-.11-1.64-.78-1.96-1.56-3.93-2.41-5.86-.31-.71-.62-1.42-.92-2.13l-109-94.91h.05l-5.74-5h-7.61l5.63,4.9h0l-5.63-4.9h-280.66v.25h-18.13c.4,14.86.8,30.51-.02,66.45-.23,20.35-4.77,39.13-13.49,55.81-13.13,25.12-71.31,75.72-84.44,84.98-20.56,14.51-80.64,56.89-92.99,62.2-.06-.82-.35-1.74-1.24-2.42-1.59-1.23-3.72-.61-5.6.16-28.38,11.7-51.77,15.83-103.94,18.22-17.1.75-37.18,1.33-61.35,1.92-52.54,1.27-143.39,2.54-231.9,2.59-.09,0-.18,0-.28,0-1.31,0-2.62,0-3.93,0-.54,0-1.07,0-1.61,0s-1.07,0-1.61,0c-1.31,0-2.62,0-3.93,0-.09,0-.18,0-.28,0-88.51-.05-179.36-1.31-231.9-2.59-24.17-.59-44.24-1.17-61.35-1.92-52.17-2.38-75.56-6.52-103.94-18.22-1.88-.77-4.01-1.4-5.6-.16-.89.69-1.18,1.6-1.24,2.42-12.34-5.31-72.42-47.69-92.99-62.2-13.13-9.26-71.31-59.85-84.44-84.98-8.72-16.69-13.26-35.46-13.49-55.81-.82-35.94-.42-51.59-.02-66.45h-18.13v-.25h-288.27l-5.74,5h.05l-109.23,95.12c-.03-.09-.05-.18-.08-.27-.08-.25-.16-.5-.24-.75,0,.01-.01.02-.02.03-2.54,3.39-2.86,5.08-2.79,9.17,0,.39,0,.78,0,1.16l.18-.15c4.62,26.19-6.48,52.64-29.1,67.71-24.07,16.03-81.86,61.69-98.74,139.36-5.64,25.97-17.38,80,14.78,130.75,22.32,35.22,55.58,52.81,79.55,61.37l.65.23,402.08-78.76c4.27-.84,8.64-1.26,12.98-1.26,20.36,0,39.42,9.05,52.29,24.82,15.72,19.27,19.58,45.51,10.05,68.54-1.79,4.65-3.83,15.44-.67,20.54,2.61,4.22,9.86,8.47,20.14,8.47,4.19,0,8.44-.73,12.62-2.18,7.11-2.46,14.53-3.7,22.06-3.7h.67s525.73,5.27,525.73,5.27l525.68-5.27c.31,0,.62,0,.94,0,7.04.02,14.57,1.34,22.39,3.91,3.99,1.31,8.03,1.98,12.02,1.98,10.28,0,17.52-4.25,20.14-8.47,3.33-5.38.95-16.34-.68-20.57-9.52-22.98-5.67-49.23,10.06-68.51,12.87-15.78,31.93-24.83,52.29-24.83,4.34,0,8.71.42,12.98,1.26l401.41,78.63.67.13.65-.23c23.97-8.56,57.23-26.15,79.55-61.37,32.16-50.74,20.42-104.78,14.78-130.75-16.88-77.67-74.67-123.34-98.74-139.37-22.62-15.06-33.71-41.49-29.11-67.67ZM2777.54,1685.42c5.5,25.32,16.95,78-14.12,127.01-21.36,33.71-53.19,50.73-76.37,59.1l-400.73-78.49c-4.59-.9-9.28-1.35-13.94-1.35-21.87,0-42.34,9.72-56.17,26.66-16.9,20.7-21.04,48.9-10.83,73.52,1.7,4.43,2.9,13.14,1.07,16.09-1.52,2.45-7.01,6.1-15.89,6.1-3.46,0-6.98-.58-10.46-1.73-8.32-2.74-16.37-4.13-23.94-4.16-.09,0-.18,0-.27,0-.24,0-.49,0-.73,0l-525.63,5.27-525.68-5.27h-.72c-8.08,0-16.05,1.33-23.69,3.98-3.66,1.26-7.35,1.9-10.99,1.9-8.88,0-14.37-3.65-15.89-6.11-1.83-2.96-.63-11.67,1.06-16.05,10.21-24.68,6.07-52.87-10.82-73.56-13.83-16.94-34.3-26.66-56.16-26.66-4.66,0-9.35.46-13.94,1.35l-400.73,78.49c-23.18-8.38-55-25.4-76.37-59.1-31.06-49.01-19.62-101.69-14.12-127.01,16.49-75.88,73.06-120.57,96.62-136.27,13.05-8.69,22.75-21.08,28.05-35.84,4.63-12.91,5.52-26.56,2.63-39.82l115.45-100.53h299.35c-.35,13.67-.59,29.64.15,61.78.24,21.12,4.97,40.66,14.06,58.04,14.07,26.94,75.51,79.35,85.99,86.75,94.15,66.42,96.49,64.98,99.47,63.16,1.11-.68,1.45-1.7,1.52-2.61,17.18,7.07,32.53,11.42,53.2,14.29v.26c14.27,1.82,31.02,3.03,52.31,3.97,16.52.75,35.88,1.33,59.15,1.92,51.67,1.3,141.8,2.59,228.73,2.59,1.37,0,2.74,0,4.1,0,2.41,0,4.82,0,7.23,0,2.41,0,4.82,0,7.23,0,1.37,0,2.73,0,4.1,0,86.93,0,177.05-1.29,228.73-2.59,23.26-.59,42.63-1.17,59.15-1.92,21.29-.94,38.04-2.14,52.31-3.97v-.26c20.67-2.87,36.02-7.22,53.2-14.29.07.91.42,1.93,1.52,2.61,2.98,1.82,5.32,3.26,99.47-63.16,10.48-7.39,71.92-59.81,85.99-86.75,9.09-17.39,13.81-36.93,14.06-58.04.73-32.14.49-48.11.15-61.78h299.35l115.49,100.56c-2.88,13.25-1.99,26.89,2.64,39.78,5.3,14.76,15,27.15,28.04,35.84,23.56,15.69,80.14,60.38,96.62,136.27Z"/>
    <path class="cls-2" d="M1016.64,1301.72c-1.99-.16-4.02-.25-6.03-.25h-288.27c-6.62,0-13.15.91-19.44,2.66h320.81v-.42s2.62.08,2.62.08c7.1.2,14.28.38,21.48.54-6.18-1.7-12.6-2.6-19.07-2.6h-12.09Z"/>
    <path class="cls-2" d="M1077.1,1327.14c12.63,12.98,19.59,30.81,19.1,48.92-.38,13.91-.77,28.3.03,63.06v.77c.12,9.45,1.9,17.5,5.47,24.61l.15.25c8.88,13.52,50.81,52.13,63.83,61.6,30.52,21.53,53.59,37.46,68.58,47.33l.44.29.52.09c5.7.96,11.42,2.62,17.02,4.93,17.58,7.25,31.33,10.91,81.29,13.2,14.74.65,32.66,1.21,59.92,1.87,51.16,1.24,142.22,2.52,230.31,2.57h11.55c88.08-.05,179.14-1.32,230.3-2.57,27.26-.66,45.17-1.22,59.9-1.87,49.97-2.28,63.72-5.95,81.29-13.19,5.59-2.31,11.32-3.96,17.03-4.93l.52-.09.44-.29c14.98-9.87,38.06-25.8,68.62-47.35,12.99-9.46,54.91-48.06,63.79-61.57l.15-.25c3.56-7.11,5.34-15.16,5.45-24.61v-.77c.81-34.76.42-49.16.04-63.08-.49-18.1,6.47-35.93,19.1-48.91,8.28-8.5,18.71-14.61,30.01-17.83-4.77.11-9.58.2-14.4.29-7.08,3.58-13.6,8.3-19.19,14.05-13.57,13.94-21.05,33.09-20.52,52.53.38,13.86.76,28.19-.03,62.83v.82c-.11,8.62-1.7,15.91-4.87,22.3-8.62,12.97-50.08,51.13-62.44,60.13-30.19,21.3-53.07,37.09-68.02,46.96-5.9,1.04-11.81,2.77-17.57,5.15-17.03,7.02-30.43,10.57-79.61,12.82-14.69.65-32.57,1.2-59.8,1.86-51.13,1.24-142.14,2.52-230.18,2.56h-11.55c-88.04-.05-179.05-1.32-230.19-2.56-27.22-.66-45.11-1.22-59.81-1.87-49.17-2.25-62.58-5.8-79.61-12.82-5.77-2.38-11.67-4.1-17.57-5.14-14.95-9.86-37.83-25.66-67.98-46.93-12.39-9.02-53.86-47.19-62.48-60.16-3.17-6.38-4.76-13.68-4.86-22.3v-.82c-.81-34.64-.42-48.96-.04-62.82.53-19.44-6.95-38.59-20.52-52.53-5.59-5.75-12.11-10.47-19.19-14.05-4.81-.09-9.62-.18-14.4-.29,11.3,3.21,21.73,9.32,30.01,17.83Z"/>
    <path class="cls-2" d="M693.88,1312.78c3.15-1.46,6.41-2.68,9.75-3.65h-5.84l-3.91,3.65Z"/>
    <path class="cls-2" d="M691.23,1308.49c-5.92,2.81-11.49,6.43-16.51,10.81l-5.74,5c-.57.5-1.13,1-1.62,1.46l-98.28,85.58c-5.73,3.53-10.88,7.79-15.39,12.71,1.26.28,2.52.58,3.77.93l133.77-116.49Z"/>
    <path class="cls-2" d="M2727.11,1477.98l-.02-.37c-.46-7.73-2.14-15.3-5-22.49-.86-2.18-2.05-5.16-3.48-8.4-.12-.27-.24-.54-.35-.81-2.23-5.33-5.13-10.38-8.56-15.04-.33.11-.65.22-.98.34l.36.31c-1.49.23-3.01.79-4.5.88,3.68,4.72,6.76,9.92,9.07,15.43.13.3.26.6.39.9,1.4,3.16,2.56,6.09,3.41,8.23,2.66,6.7,4.23,13.74,4.65,20.95l.03.42c.36,4.66.21,9.36-.39,13.99h5.06c.58-4.76.69-9.58.32-14.34Z"/>
    <path class="cls-2" d="M536.78,1482.98c-.17-11.82,1.26-29.79,15.55-49.38l.48-.65c.83-1.13,1.71-2.21,2.6-3.28-.83-.09-1.73-.25-2.81-.46l.28-.24c-.95-.21-1.91-.39-2.87-.56-.41.52-.82,1.04-1.22,1.57l-.5.69c-15.16,20.79-16.68,39.86-16.5,52.34-.02,3.1.17,6.23.55,9.31h5.05c-.41-3.07-.61-6.19-.6-9.33Z"/>
    <path class="cls-2" d="M2850.85,1675.5c6.42,29.56,23.48,108.08-24.06,183.08-41.8,65.94-108.5,89.11-135.24,96l-.55.14-414.68-81.23c4.33,12.58,13.61,48.19-6.1,79.98-16.41,26.47-46.97,41.55-79.67,41.56-11.59,0-23.45-1.9-35.04-5.85l-525.95,5.27-526-5.27c-11.59,3.95-23.45,5.85-35.04,5.85-32.7,0-63.26-15.09-79.67-41.56-19.71-31.78-10.43-67.4-6.1-79.98l-414.68,81.23-.55-.14c-26.74-6.9-93.44-30.06-135.24-96-47.54-75.01-30.48-153.52-24.06-183.08,20.84-95.93,87.59-154.04,121.67-178.18h-4.28c-34.34,24.96-99.31,83.18-119.83,177.65-3.35,15.4-8.95,41.18-8.43,72.67.68,41.22,11.72,78.99,32.82,112.28,33.37,52.64,81.73,78.45,116.43,90.84l.65.23c7.84,2.8,16.04,4.21,24.36,4.21,4.67,0,9.36-.46,13.94-1.35l393.49-77.07c-4.85,15.92-10.78,48.23,7.7,78.02,16.36,26.38,47.68,42.76,81.75,42.76,11.98,0,23.92-1.98,35.48-5.88,88.77.89,525.36,5.27,525.6,5.27s436.99-4.38,525.45-5.27c.22.06.52.14.92.27,11.31,3.72,22.97,5.6,34.66,5.6,34.08,0,65.41-16.38,81.75-42.76,18.47-29.77,12.54-62.11,7.7-78.03l393.52,77.08c4.57.89,9.25,1.35,13.91,1.35,8.33,0,16.53-1.42,24.38-4.22l.64-.23c34.69-12.38,83.05-38.19,116.42-90.83,21.1-33.29,32.14-71.07,32.82-112.28.52-31.49-5.08-57.27-8.43-72.67-20.53-94.48-85.52-152.72-119.83-177.65h-4.28c34.08,24.14,100.83,82.25,121.67,178.18Z"/>
    <path class="cls-2" d="M2726.79,1492.31h-5.06c-.05.37-.08.73-.13,1.1l-.23,1.56,1.3.88c30.52,20.63,103.86,79.49,125.74,180.18,3.3,15.19,8.83,40.61,8.32,71.52-.66,40.28-11.45,77.19-32.05,109.69-32.61,51.44-79.92,76.68-113.88,88.8l-.64.23c-7.3,2.61-14.94,3.93-22.69,3.93-4.34,0-8.7-.42-12.95-1.25l-401.97-78.74,1.44,4.11c4.59,13.15,13.2,47.06-5.89,77.85-15.44,24.91-45.14,40.39-77.5,40.39-11.16,0-22.3-1.8-33.1-5.35-.76-.25-1.32-.39-1.65-.47l-.28-.06h-.29c-5.25.06-524.48,5.26-525.69,5.27-1.25-.01-520.74-5.22-525.99-5.27h-.43s-.4.13-.4.13c-11.17,3.81-22.7,5.75-34.28,5.75-32.35,0-62.05-15.48-77.5-40.4-19.11-30.81-10.48-64.7-5.89-77.84l1.44-4.12-401.95,78.73c-4.26.83-8.63,1.26-12.97,1.26-7.75,0-15.38-1.32-22.68-3.92l-.65-.23c-33.96-12.12-81.28-37.37-113.89-88.81-20.6-32.5-31.38-69.41-32.05-109.69-.51-30.91,5.02-56.33,8.32-71.53,21.88-100.72,95.26-159.58,125.79-180.21l1.3-.88-.23-1.56c-.05-.35-.09-.71-.14-1.06h-5.05c0,.08.02.16.03.24-2.08,1.42-4.34,3.01-6.75,4.76h4.28c-34.08,24.14-100.83,82.25-121.67,178.18-6.42,29.56-23.48,108.08,24.06,183.08,41.8,65.94,108.5,89.11,135.24,96l.55.14,414.68-81.23c-4.33,12.58-13.6,48.2,6.1,79.98,16.41,26.47,46.97,41.56,79.67,41.56,11.59,0,23.45-1.9,35.04-5.85l526,5.27,525.95-5.27c11.59,3.96,23.45,5.85,35.04,5.85,32.7,0,63.26-15.09,79.67-41.56,19.71-31.79,10.43-67.4,6.1-79.98l414.68,81.23.55-.14c26.74-6.9,93.44-30.06,135.24-96,47.54-75.01,30.48-153.52,24.06-183.08-20.84-95.93-87.59-154.04-121.67-178.18h4.28c-2.39-1.74-4.64-3.32-6.7-4.73.01-.09.02-.18.03-.27Z"/>
    <path class="cls-2" d="M571.87,1415.48l.18-.11,98.65-85.9c.51-.48,1.04-.95,1.57-1.41l5.74-5c4.82-4.19,10.17-7.64,15.87-10.29l3.91-3.65h5.84c6.04-1.74,12.33-2.66,18.71-2.66h288.27c1.91,0,3.83.08,5.72.24h12.41c6.24,0,12.42.91,18.37,2.6,4.77.11,9.58.2,14.4.29-4.37-2.21-8.96-3.99-13.69-5.28-7.2-.16-14.38-.34-21.48-.54l-2.63-.08v.42s-320.8,0-320.8,0c-4.01,1.11-7.91,2.57-11.66,4.36l-133.77,116.49c-1.24-.35-2.5-.65-3.77-.93-1.28,1.4-2.51,2.86-3.69,4.36.96.17,1.92.35,2.87.56l-.28.24c1.08.21,1.98.38,2.81.46,4.69-5.59,10.2-10.36,16.46-14.18Z"/>
    <path class="cls-2" d="M2704.41,1427.46l-136.62-118.97c-3.76-1.78-7.66-3.24-11.66-4.36h-320.81v-.42s-2.62.08-2.62.08c-7.1.2-14.28.38-21.48.54-4.73,1.3-9.32,3.07-13.69,5.28,4.81-.09,9.62-.18,14.4-.29,5.94-1.69,12.12-2.6,18.37-2.6h12.41c1.89-.17,3.81-.25,5.72-.25h288.27c6.38,0,12.67.92,18.71,2.66h5.84l3.91,3.65c5.7,2.65,11.06,6.09,15.87,10.29l5.74,5c.53.46,1.05.93,1.62,1.46l107.33,93.46c3.25,2.83,6.22,6.01,8.87,9.42,1.49-.09,3.01-.65,4.5-.88l-.36-.31c.33-.12.66-.23.98-.34-1.05-1.42-2.15-2.79-3.3-4.13-.66.24-1.32.47-1.99.72Z"/>
    <path class="cls-2" d="M422.61,1379.68h-146.7c-10.3,0-18.68-8.38-18.68-18.68v-44.22c0-10.3,8.38-18.68,18.68-18.68h146.7c10.3,0,18.68,8.38,18.68,18.68v44.22c0,10.3-8.38,18.68-18.68,18.68ZM275.92,1303.1c-7.54,0-13.68,6.14-13.68,13.68v44.22c0,7.54,6.14,13.68,13.68,13.68h146.7c7.54,0,13.68-6.14,13.68-13.68v-44.22c0-7.54-6.14-13.68-13.68-13.68h-146.7Z"/>
    <path class="cls-2" d="M579.48,1011.9h-48.15v-120.64h48.15v120.64ZM536.33,1006.9h38.15v-110.64h-38.15v110.64Z"/>
    <path class="cls-2" d="M185.21,892.87h-50.85v-50.85h50.85v50.85ZM139.36,887.87h40.85v-40.85h-40.85v40.85Z"/>
    <path class="cls-2" d="M579.12,1392.12h-50.85v-50.85h50.85v50.85ZM533.26,1387.12h40.85v-40.85h-40.85v40.85Z"/>
    <path class="cls-2" d="M1663.31,520.79h-57.44c-3.4,0-6.17-2.77-6.17-6.17v-57.44c0-3.4,2.77-6.17,6.17-6.17h57.44c3.4,0,6.17,2.77,6.17,6.17v57.44c0,3.4-2.77,6.17-6.17,6.17ZM1605.87,456c-.65,0-1.17.53-1.17,1.17v57.44c0,.65.53,1.17,1.17,1.17h57.44c.65,0,1.17-.53,1.17-1.17v-57.44c0-.65-.53-1.17-1.17-1.17h-57.44Z"/>
  </g>
</svg>