<?xml version="1.0" encoding="UTF-8"?>
<svg id="Capa_2" data-name="Capa 2" xmlns="http://www.w3.org/2000/svg" viewBox="0 0 1045.43 363.26">
  <defs>
    <style>
      .cls-1 {
        fill: #0b092b;
        stroke: #e60f9e;
      }

      .cls-1, .cls-2 {
        stroke-miterlimit: 10;
        stroke-width: 6px;
      }

      .cls-2 {
        fill: none;
        stroke: #fff;
      }
    </style>
  </defs>
  <g id="Capa_1-2" data-name="Capa 1">
    <g>
      <path class="cls-1" d="M969.12,154.67H384.6v-89.42c0-23.89-19.36-43.25-43.25-43.25H46.25C22.36,22,3,41.36,3,65.25v251.76c0,23.89,19.36,43.25,43.25,43.25h922.87c23.89,0,43.25-19.36,43.25-43.25v-119.08c0-23.89-19.36-43.25-43.25-43.25Z"/>
      <path class="cls-2" d="M999.18,135.67H414.65V46.25c0-23.89-19.36-43.25-43.25-43.25H76.31c-23.89,0-43.25,19.36-43.25,43.25v251.76c0,23.89,19.36,43.25,43.25,43.25h922.87c23.89,0,43.25-19.36,43.25-43.25v-119.08c0-23.89-19.36-43.25-43.25-43.25Z"/>
    </g>
  </g>
</svg>