<?xml version="1.0" encoding="UTF-8"?>
<svg id="Capa_1" data-name="Capa 1" xmlns="http://www.w3.org/2000/svg" viewBox="0 0 280.32 391.73">
  <defs>
    <style>
      .cls-1 {
        stroke: #fff;
      }

      .cls-1, .cls-2 {
        fill: none;
        stroke-miterlimit: 10;
        stroke-width: 6px;
      }

      .cls-2 {
        stroke: #46c36c;
      }
    </style>
  </defs>
  <g>
    <g>
      <path class="cls-2" d="M38.8,86.23c-13.64,5.98-28.62,13.34-33.67,27.35-3.04,8.42-1.81,17.7-.55,26.56,5.51,38.63,11.02,77.25,16.53,115.88"/>
      <path class="cls-2" d="M37.09,87.36c29.34,2.95,58.96,3.01,88.31.2"/>
      <path class="cls-2" d="M17.74,255.84c37.21,3.88,74.98,2.37,111.77-4.45,6.32-1.17,13.78-3.73,17.35-8.55.68-.92,2.13-.6,2.34.52,3.29,17.7,2.5,16.68,1.1,25.87-7.45,10.33-21.51,12.92-34.17,14.26-33.34,3.53-66.99,4.14-100.44,1.81-2.13-10.25-2.02-20.96.67-31.16,2.18.85,4.36,1.7,1.39,1.69Z"/>
      <path class="cls-2" d="M146.38,243.35c3.96-28.3,7.41-56.74,10.86-85.18,1.84-15.2,3.64-30.98-1.14-45.52-4.77-14.55-18.1-27.49-34.19-24.48l1.42,5.12c-.12-1.82-.25-3.65-.37-5.47"/>
      <path class="cls-2" d="M26.43,292.5c1.48,9.67,2.86,19.54,4.13,29.63,2.43,19.34,4.27,38.08,5.62,56.16,8.15,4.28,15.22,6.46,19.93,7.64,9.52,2.38,35.25,7.12,59.09-6.15,3.7-2.06,6.49-4.08,8.13-5.32.77-3.46,1.54-6.92,2.29-10.4,6.5-29.79,12.3-59.27,17.47-88.4"/>
      <path class="cls-2" d="M56.9,84.32l.46-7.96c17.91,4.53,37.04,4.11,54.74-1.19-.46,3.77-.09,7.64,1.08,11.25"/>
      <path class="cls-2" d="M66.46,74.2c-1.62-13.89-.5-28.35,5.17-41.13s16.25-23.72,29.56-28.01c15.26-4.92,32.42-.6,45.68,8.4s23.11,22.22,31.26,36.03,14.85,28.44,23.36,42.03c15.61,24.95,36.88,45.76,55.58,71.32-28.75,6.26-54.88,23.8-71.55,48.04-3.99,5.8-7.51,12.1-8.94,19-1.43,6.9-.54,14.52,3.62,20.2,28.71-14.76,54.55-35.07,75.69-59.47,3.99-4.61,7.96-9.68,8.82-15.72s-2.69-13.1-8.73-13.93"/>
      <path class="cls-2" d="M246.32,176.91c-22.69,12.12-42.22,30.11-56.15,51.73,3.07-.49,5.95-2.13,7.93-4.52"/>
      <path class="cls-2" d="M111.45,74.08c-2.63-9.31.89-20.05,8.53-25.99"/>
      <path class="cls-2" d="M86.57,75.27c-1.3-7.44-2.6-15.12-.89-22.47s7.22-14.37,14.7-15.41c6.73-.93,13.13,3.02,18.35,7.36,28.72,23.93,40.21,62.75,44.87,99.84,4.66,37.09,4.06,75.2,15.16,110.9"/>
    </g>
    <path class="cls-1" d="M51.3,86.23c-13.64,5.98-28.62,13.34-33.67,27.35-3.04,8.42-1.81,17.7-.55,26.56,5.51,38.63,11.02,77.25,16.53,115.88"/>
    <path class="cls-1" d="M49.59,87.36c29.34,2.95,58.96,3.01,88.31.2"/>
    <path class="cls-1" d="M30.24,255.84c37.21,3.88,74.98,2.37,111.77-4.45,6.32-1.17,13.78-3.73,17.35-8.55.68-.92,2.13-.6,2.34.52,3.29,17.7,2.5,16.68,1.1,25.87-7.45,10.33-21.51,12.92-34.17,14.26-33.34,3.53-66.99,4.14-100.44,1.81-2.13-10.25-2.02-20.96.67-31.16,2.18.85,4.36,1.7,1.39,1.69Z"/>
    <path class="cls-1" d="M158.88,243.35c3.96-28.3,7.41-56.74,10.86-85.18,1.84-15.2,3.64-30.98-1.14-45.52-4.77-14.55-18.1-27.49-34.19-24.48l1.42,5.12c-.12-1.82-.25-3.65-.37-5.47"/>
    <path class="cls-1" d="M38.93,292.5c1.48,9.67,2.86,19.54,4.13,29.63,2.43,19.34,4.27,38.08,5.62,56.16,8.15,4.28,15.22,6.46,19.93,7.64,9.52,2.38,35.25,7.12,59.09-6.15,3.7-2.06,6.49-4.08,8.13-5.32.77-3.46,1.54-6.92,2.29-10.4,6.5-29.79,12.3-59.27,17.47-88.4"/>
    <path class="cls-1" d="M69.4,84.32l.46-7.96c17.91,4.53,37.04,4.11,54.74-1.19-.46,3.77-.09,7.64,1.08,11.25"/>
    <path class="cls-1" d="M78.96,74.2c-1.62-13.89-.5-28.35,5.17-41.13s16.25-23.72,29.56-28.01c15.26-4.92,32.42-.6,45.68,8.4s23.11,22.22,31.26,36.03,14.85,28.44,23.36,42.03c15.61,24.95,36.88,45.76,55.58,71.32-28.75,6.26-54.88,23.8-71.55,48.04-3.99,5.8-7.51,12.1-8.94,19-1.43,6.9-.54,14.52,3.62,20.2,28.71-14.76,54.55-35.07,75.69-59.47,3.99-4.61,7.96-9.68,8.82-15.72s-2.69-13.1-8.73-13.93"/>
    <path class="cls-1" d="M258.82,176.91c-22.69,12.12-42.22,30.11-56.15,51.73,3.07-.49,5.95-2.13,7.93-4.52"/>
    <path class="cls-1" d="M123.95,74.08c-2.63-9.31.89-20.05,8.53-25.99"/>
    <path class="cls-1" d="M99.07,75.27c-1.3-7.44-2.6-15.12-.89-22.47s7.22-14.37,14.7-15.41c6.73-.93,13.13,3.02,18.35,7.36,28.72,23.93,40.21,62.75,44.87,99.84,4.66,37.09,4.06,75.2,15.16,110.9"/>
  </g>
  <path class="cls-2" d="M66.92,46.39c-8.89-10.09-17.05-20.83-24.47-32.09-12.71,7.86-25.42,15.73-37.61,23.64,1.04,13.14.47,26.41-1.39,38.63,11.35.91,22.63,2.68,34.69,4.31,8.9-4.51,18.36-7.9,28.11-9.99"/>
  <path class="cls-1" d="M72,42.54c-8.89-10.09-17.05-20.83-24.47-32.09-12.71,7.86-25.42,15.73-37.61,23.64,1.04,13.14.47,26.41-1.39,38.63,11.35.91,22.63,2.68,34.69,4.31,8.9-4.51,18.36-7.9,28.11-9.99"/>
</svg>