<?xml version="1.0" encoding="UTF-8"?>
<svg id="Capa_1" data-name="Capa 1" xmlns="http://www.w3.org/2000/svg" viewBox="0 0 259.1 338.05">
  <defs>
    <style>
      .cls-1 {
        stroke: #46c36c;
      }

      .cls-1, .cls-2 {
        fill: none;
        stroke-miterlimit: 10;
        stroke-width: 2px;
      }

      .cls-3 {
        fill: #fff;
      }

      .cls-2 {
        stroke: #fff;
      }
    </style>
  </defs>
  <g>
    <path class="cls-1" d="M13.25,75.33c0,61.57.01,123.13,1.5,184.71,6.88,11.85,14.88,23.1,24.03,33.62,58.3.21,116.61.42,174.63-.72,9.56-10,18.37-20.64,26.37-31.74-4.99-62.76.95-184.89-.17-185.12-7.71-10.91-16.09-21.37-25.12-31.58-58.87,1.95-117.78,2.91-176.61,1.49-9.91,9.43-18.59,20.04-24.63,29.33Z"/>
    <polyline class="cls-1" points="12.38 75.29 1.94 74.5 1.01 43.1 14.84 25.51 35.33 18.77 46.38 2.26 86.94 3.78 95.5 17.63 158.33 16.94 166.91 1.02 206.66 2.48 215.55 18.94 239.54 25.41 251.86 42.66 251.04 75.73 240.04 75.16"/>
    <polygon class="cls-1" points="46.94 25.09 47.37 36.25 202.23 36.83 203.12 26.03 46.94 25.09"/>
    <polygon class="cls-1" points="30.5 156.66 29.54 76.33 53.38 51.72 205.38 51.05 227.85 76.05 229.53 157.47 219.16 159.02 219.26 85.5 199.34 62.24 63.33 61.79 39.84 85.39 41.61 155.94 30.5 156.66"/>
    <polygon class="cls-1" points="29.38 173.66 40.36 174.49 40.57 247.51 63.64 271.78 199.1 269.08 221.76 249.05 219.61 176.65 232.29 176.32 230.86 253.1 208.31 281.69 56.85 282.4 31.62 254.86 29.38 173.66"/>
    <polygon class="cls-1" points="59.25 193.78 60.24 204.73 71.84 204.57 71.06 194.41 59.25 193.78"/>
    <polygon class="cls-1" points="78.31 194.7 78.29 204.8 89.04 205.09 88.5 195.22 78.31 194.7"/>
    <polygon class="cls-1" points="95.53 194.97 96.37 204.35 104.72 204.47 105.6 193.66 95.53 194.97"/>
    <polygon class="cls-1" points="121.31 133.49 122.6 170.35 171.27 171.44 169.34 135.83 121.31 133.49"/>
    <polygon class="cls-1" points="147.02 85.99 148.09 109.11 169.14 108.63 169.33 86.64 147.02 85.99"/>
    <line class="cls-1" x1="74.26" y1="145.47" x2="73.94" y2="172.37"/>
    <line class="cls-1" x1="62.66" y1="145.63" x2="63.38" y2="169.76"/>
    <line class="cls-1" x1="186.75" y1="143.62" x2="187.26" y2="170.32"/>
    <line class="cls-1" x1="198.69" y1="145.82" x2="199.9" y2="170.5"/>
    <polyline class="cls-1" points="55.04 110.36 53.79 86.19 106.87 86.06"/>
    <line class="cls-1" x1="68.58" y1="96.37" x2="103.29" y2="96.92"/>
    <line class="cls-1" x1="67.45" y1="103.53" x2="100.61" y2="106.56"/>
    <polygon class="cls-1" points="60.9 226.27 61.94 246.54 198.34 245.46 199.53 227.69 60.9 226.27"/>
    <line class="cls-1" x1="58.45" y1="216.76" x2="199.67" y2="219.42"/>
    <polygon class="cls-1" points="188.72 191.92 190.99 203.74 199.95 202.87 201.04 192.85 188.72 191.92"/>
    <polyline class="cls-1" points="12.46 262.47 2.01 263.26 1.08 294.66 14.92 312.25 35.4 318.99 46.46 335.5 87.01 333.99 95.58 320.13 158.4 320.82 166.98 336.74 206.73 335.29 215.62 318.82 239.61 312.35 251.94 295.1 251.11 262.03 240.11 262.6"/>
    <polygon class="cls-1" points="47.01 312.67 47.44 301.51 202.3 300.93 203.19 311.74 47.01 312.67"/>
  </g>
  <g>
    <path class="cls-2" d="M19.4,75.61c0,61.57.01,123.13,1.5,184.71,6.88,11.85,14.88,23.1,24.03,33.62,58.3.21,116.61.42,174.63-.72,9.56-10,18.37-20.64,26.37-31.74-4.99-62.76.95-184.89-.17-185.12-7.71-10.91-16.09-21.37-25.12-31.58-58.87,1.95-117.78,2.91-176.61,1.49-9.91,9.43-18.59,20.04-24.63,29.33Z"/>
    <polyline class="cls-2" points="18.54 75.57 8.1 74.78 7.17 43.39 21 25.79 41.49 19.06 52.54 2.55 93.09 4.06 101.66 17.91 164.49 17.23 173.06 1.31 212.82 2.76 221.71 19.23 245.69 25.7 258.02 42.94 257.2 76.02 246.2 75.45"/>
    <polygon class="cls-2" points="53.09 25.37 53.53 36.54 208.39 37.12 209.27 26.31 53.09 25.37"/>
    <polygon class="cls-2" points="36.66 156.94 35.7 76.61 59.53 52.01 211.53 51.34 234 76.34 235.68 157.76 225.32 159.3 225.41 85.78 205.5 62.53 69.48 62.08 46 85.68 47.76 156.23 36.66 156.94"/>
    <polygon class="cls-2" points="35.54 173.94 46.52 174.77 46.73 247.8 69.8 272.07 205.26 269.37 227.91 249.33 225.76 176.94 238.45 176.6 237.01 253.39 214.47 281.97 63 282.68 37.78 255.15 35.54 173.94"/>
    <polygon class="cls-2" points="65.41 194.07 66.4 205.01 78 204.86 77.21 194.7 65.41 194.07"/>
    <polygon class="cls-2" points="84.46 194.99 84.44 205.08 95.2 205.38 94.66 195.5 84.46 194.99"/>
    <polygon class="cls-2" points="101.68 195.26 102.53 204.64 110.87 204.75 111.76 193.95 101.68 195.26"/>
    <polygon class="cls-2" points="127.46 133.78 128.75 170.64 177.43 171.73 175.49 136.12 127.46 133.78"/>
    <polygon class="cls-2" points="153.17 86.27 154.24 109.4 175.3 108.92 175.48 86.93 153.17 86.27"/>
    <line class="cls-2" x1="80.41" y1="145.75" x2="80.1" y2="172.65"/>
    <line class="cls-2" x1="68.82" y1="145.91" x2="69.53" y2="170.04"/>
    <line class="cls-2" x1="192.91" y1="143.91" x2="193.41" y2="170.61"/>
    <line class="cls-2" x1="204.85" y1="146.1" x2="206.06" y2="170.79"/>
    <polyline class="cls-2" points="61.2 110.64 59.94 86.47 113.03 86.34"/>
    <line class="cls-2" x1="74.74" y1="96.65" x2="109.44" y2="97.21"/>
    <line class="cls-2" x1="73.61" y1="103.82" x2="106.77" y2="106.84"/>
    <polygon class="cls-2" points="67.06 226.55 68.09 246.82 204.5 245.75 205.69 227.98 67.06 226.55"/>
    <line class="cls-2" x1="64.61" y1="217.05" x2="205.83" y2="219.7"/>
    <polygon class="cls-3" points="194.88 192.21 197.14 204.03 206.1 203.15 207.19 193.14 194.88 192.21"/>
    <polyline class="cls-2" points="18.61 262.76 8.17 263.55 7.24 294.95 21.07 312.54 41.56 319.27 52.61 335.78 93.17 334.27 101.73 320.42 164.56 321.1 173.14 337.02 212.89 335.57 221.78 319.11 245.76 312.63 258.09 295.39 257.27 262.31 246.27 262.89"/>
    <polygon class="cls-2" points="53.17 312.96 53.6 301.8 208.46 301.21 209.34 312.02 53.17 312.96"/>
  </g>
</svg>