<?xml version="1.0" encoding="UTF-8"?>
<svg id="Capa_1" data-name="Capa 1" xmlns="http://www.w3.org/2000/svg" viewBox="0 0 263.14 342.13">
  <defs>
    <style>
      .cls-1 {
        fill: #fff;
      }

      .cls-2 {
        stroke: #fff;
      }

      .cls-2, .cls-3 {
        fill: none;
        stroke-miterlimit: 10;
        stroke-width: 6px;
      }

      .cls-3 {
        stroke: #46c36c;
      }
    </style>
  </defs>
  <g>
    <path class="cls-3" d="M15.27,77.37c0,61.57.01,123.13,1.5,184.71,6.88,11.85,14.88,23.1,24.03,33.62,58.3.21,116.61.42,174.63-.72,9.56-10,18.37-20.64,26.37-31.74-4.99-62.76.95-184.89-.17-185.12-7.71-10.91-16.09-21.37-25.12-31.58-58.87,1.95-117.78,2.91-176.61,1.49-9.91,9.43-18.59,20.04-24.63,29.33Z"/>
    <polyline class="cls-3" points="14.4 77.33 3.96 76.54 3.03 45.15 16.86 27.55 37.35 20.82 48.4 4.31 88.96 5.82 97.52 19.67 160.35 18.99 168.93 3.07 208.68 4.52 217.57 20.98 241.56 27.46 253.88 44.7 253.06 77.78 242.06 77.2"/>
    <polygon class="cls-3" points="48.96 27.13 49.39 38.3 204.25 38.88 205.14 28.07 48.96 27.13"/>
    <polygon class="cls-3" points="32.53 158.7 31.56 78.37 55.4 53.77 207.4 53.09 229.87 78.09 231.55 159.51 221.18 161.06 221.28 87.54 201.36 64.29 65.35 63.84 41.86 87.43 43.63 157.99 32.53 158.7"/>
    <polygon class="cls-3" points="31.4 175.7 42.38 176.53 42.6 249.56 65.66 273.82 201.12 271.13 223.78 251.09 221.63 178.7 234.32 178.36 232.88 255.15 210.33 283.73 58.87 284.44 33.64 256.9 31.4 175.7"/>
    <polygon class="cls-3" points="61.27 195.82 62.26 206.77 73.86 206.61 73.08 196.46 61.27 195.82"/>
    <polygon class="cls-3" points="80.33 196.75 80.31 206.84 91.06 207.14 90.52 197.26 80.33 196.75"/>
    <polygon class="cls-3" points="97.55 197.01 98.39 206.4 106.74 206.51 107.62 195.71 97.55 197.01"/>
    <polygon class="cls-3" points="123.33 135.54 124.62 172.4 173.29 173.49 171.36 137.87 123.33 135.54"/>
    <polygon class="cls-3" points="149.04 88.03 150.11 111.15 171.16 110.68 171.35 88.68 149.04 88.03"/>
    <line class="cls-3" x1="76.28" y1="147.51" x2="75.96" y2="174.41"/>
    <line class="cls-3" x1="64.68" y1="147.67" x2="65.4" y2="171.8"/>
    <line class="cls-3" x1="188.77" y1="145.66" x2="189.28" y2="172.37"/>
    <line class="cls-3" x1="200.71" y1="147.86" x2="201.92" y2="172.55"/>
    <polyline class="cls-3" points="57.06 112.4 55.81 88.23 108.89 88.1"/>
    <line class="cls-3" x1="70.6" y1="98.41" x2="105.31" y2="98.96"/>
    <line class="cls-3" x1="69.47" y1="105.57" x2="102.63" y2="108.6"/>
    <polygon class="cls-3" points="62.92 228.31 63.96 248.58 200.36 247.51 201.55 229.73 62.92 228.31"/>
    <line class="cls-3" x1="60.47" y1="218.81" x2="201.69" y2="221.46"/>
    <polygon class="cls-3" points="190.74 193.97 193.01 205.79 201.97 204.91 203.06 194.9 190.74 193.97"/>
    <polyline class="cls-3" points="14.48 264.52 4.03 265.31 3.1 296.7 16.94 314.3 37.43 321.03 48.48 337.54 89.03 336.03 97.6 322.18 160.42 322.86 169 338.78 208.75 337.33 217.64 320.87 241.63 314.39 253.96 297.15 253.13 264.07 242.13 264.65"/>
    <polygon class="cls-3" points="49.03 314.72 49.46 303.55 204.32 302.97 205.21 313.78 49.03 314.72"/>
  </g>
  <g>
    <path class="cls-2" d="M21.42,77.66c0,61.57.01,123.13,1.5,184.71,6.88,11.85,14.88,23.1,24.03,33.62,58.3.21,116.61.42,174.63-.72,9.56-10,18.37-20.64,26.37-31.74-4.99-62.76.95-184.89-.17-185.12-7.71-10.91-16.09-21.37-25.12-31.58-58.87,1.95-117.78,2.91-176.61,1.49-9.91,9.43-18.59,20.04-24.63,29.33Z"/>
    <polyline class="cls-2" points="20.56 77.62 10.12 76.83 9.19 45.43 23.02 27.84 43.51 21.1 54.56 4.59 95.12 6.11 103.68 19.96 166.51 19.27 175.08 3.35 214.84 4.81 223.73 21.27 247.71 27.74 260.04 44.99 259.22 78.06 248.22 77.49"/>
    <polygon class="cls-2" points="55.11 27.42 55.55 38.58 210.41 39.16 211.29 28.36 55.11 27.42"/>
    <polygon class="cls-2" points="38.68 158.99 37.72 78.66 61.55 54.05 213.55 53.38 236.02 78.38 237.71 159.8 227.34 161.35 227.44 87.83 207.52 64.57 71.51 64.12 48.02 87.72 49.79 158.27 38.68 158.99"/>
    <polygon class="cls-2" points="37.56 175.99 48.54 176.82 48.75 249.84 71.82 274.11 207.28 271.41 229.94 251.38 227.78 178.98 240.47 178.65 239.03 255.43 216.49 284.02 65.02 284.73 39.8 257.19 37.56 175.99"/>
    <polygon class="cls-2" points="67.43 196.11 68.42 207.06 80.02 206.9 79.23 196.74 67.43 196.11"/>
    <polygon class="cls-2" points="86.48 197.03 86.46 207.13 97.22 207.42 96.68 197.55 86.48 197.03"/>
    <polygon class="cls-2" points="103.7 197.3 104.55 206.68 112.89 206.8 113.78 195.99 103.7 197.3"/>
    <polygon class="cls-2" points="129.48 135.82 130.77 172.68 179.45 173.77 177.51 138.16 129.48 135.82"/>
    <polygon class="cls-2" points="155.19 88.32 156.26 111.44 177.32 110.96 177.5 88.97 155.19 88.32"/>
    <line class="cls-2" x1="82.43" y1="147.8" x2="82.12" y2="174.7"/>
    <line class="cls-2" x1="70.84" y1="147.95" x2="71.55" y2="172.09"/>
    <line class="cls-2" x1="194.93" y1="145.95" x2="195.43" y2="172.65"/>
    <line class="cls-2" x1="206.87" y1="148.15" x2="208.08" y2="172.83"/>
    <polyline class="cls-2" points="63.22 112.69 61.96 88.52 115.05 88.39"/>
    <line class="cls-2" x1="76.76" y1="98.7" x2="111.46" y2="99.25"/>
    <line class="cls-2" x1="75.63" y1="105.86" x2="108.79" y2="108.88"/>
    <polygon class="cls-2" points="69.08 228.6 70.11 248.87 206.52 247.79 207.71 230.02 69.08 228.6"/>
    <line class="cls-2" x1="66.63" y1="219.09" x2="207.85" y2="221.75"/>
    <polygon class="cls-1" points="196.9 194.25 199.16 206.07 208.12 205.2 209.21 195.18 196.9 194.25"/>
    <polyline class="cls-2" points="20.63 264.8 10.19 265.59 9.26 296.99 23.09 314.58 43.58 321.32 54.63 337.83 95.19 336.31 103.75 322.46 166.58 323.15 175.16 339.07 214.91 337.62 223.8 321.15 247.79 314.68 260.11 297.43 259.29 264.36 248.29 264.93"/>
    <polygon class="cls-2" points="55.19 315 55.62 303.84 210.48 303.26 211.37 314.07 55.19 315"/>
  </g>
</svg>