<?xml version="1.0" encoding="UTF-8"?>
<svg id="Capa_1" data-name="Capa 1" xmlns="http://www.w3.org/2000/svg" viewBox="0 0 324.94 350.22">
  <defs>
    <style>
      .cls-1 {
        stroke: #fff;
      }

      .cls-1, .cls-2 {
        fill: none;
        stroke-miterlimit: 10;
        stroke-width: 6px;
      }

      .cls-2 {
        stroke: #46c36c;
      }
    </style>
  </defs>
  <g>
    <g>
      <path class="cls-2" d="M121.87,317.81c29.26-8.88,61.47-7.69,89.99,3.35"/>
      <path class="cls-2" d="M137.86,324.26c18.69,1.09,37.49.33,56.03-2.28"/>
      <path class="cls-2" d="M121.48,309.44c-8.1,2.42-15.58,6.9-21.53,12.92"/>
      <path class="cls-2" d="M195.54,309.45c10.61.86,19.58,3.76,28.26,8.68-4.25,3.82-11.49,9.01-17.11,10.06-35.61,7.08-73.04,4.84-107.54-6.46"/>
      <path class="cls-2" d="M98.62,326.3c-1.77,2.52-4.06,4.67-6.68,6.28,7.21-.21,14.4-1.29,21.28-3.45"/>
      <path class="cls-2" d="M117.24,331.33l-5.03,4.88c7.13.41,14.32-.24,21.26-1.92"/>
      <path class="cls-2" d="M177.73,334.84c3.16,1.88,6.69,3.15,10.29,3.79,2.17-2.12,4.58-3.98,7.18-5.55"/>
      <path class="cls-2" d="M208.81,330.42c6.52,1.09,13.04,2.19,19.48,3.43-3.53-2.41-7.2-4.63-10.98-6.63"/>
      <path class="cls-2" d="M99.05,333.51l-.17,5.31c40.91,10.97,84.58,11.49,125.35-.13v1.29"/>
      <path class="cls-2" d="M225.16,320.76c6.72,3.02,13.58,5.74,20.52,8.32-7.45-.85-14.91-1.71-22.35-2.61"/>
      <path class="cls-2" d="M144.27,333.6c3.02,2.07,6.04,4.15,9.02,6.21,1.78-1.95,3.95-3.55,6.36-4.63"/>
      <path class="cls-2" d="M140.74,340.7c3.59-.06,7.19.08,10.76.49.87-.03,1.74-.06,2.61-.1,2.86-.54,5.8-.7,8.71-.46"/>
      <path class="cls-2" d="M97.43,320.05c-5.1,2.64-10.55,4.61-16.17,5.92,3.03.68,5.99,1.67,8.84,2.92v.04"/>
      <path class="cls-2" d="M97.43,320.05c-5.1,2.64-10.55,4.61-16.17,5.92,3.03.68,5.99,1.67,8.84,2.92v.04"/>
      <path class="cls-2" d="M40.36,25.52c29.76-4.01,59.28-9.83,88.13-17.69,11.63,40.08,20.25,81.04,26.41,122.32,1.18,1.43,2.36,2.86,3.54,4.3l-.28-.09"/>
      <path class="cls-2" d="M138.83,161.15c4.94-6.71,10.58-12.92,17.08-18.47,11.85-26.01,23.69-52.02,35.08-78.26,3.43-15.37,5.99-30.93,7.7-46.55,6.75-2.82,13.5-5.65,20.13-8.15,20.82,6.58,41.64,13.17,62.14,19.97,7.49,18.03,17.08,35.19,27.94,51.18-2.74,15.86-3.44,32.07-2.33,48.03-2.79,9.44-5.58,18.87-8.27,28.34-2.46,18.42-3.48,37.03-3.05,55.61.03-.09.06-.19.17-.31,7.55,15.99,13.54,32.72,17.74,49.87-1.25,10.43-1.51,20.97-.92,31.28-12.09,7.22-24.18,14.44-36.31,21.6-8.27,1.71-16.32,4.47-23.78,7.14-6.85-.76-13.75-1.02-20.64-.83"/>
      <path class="cls-2" d="M208.1,23.03c6.31,3.75,12.63,7.49,18.94,11.24,12.74-.56,25.6,1.58,37.48,6.23"/>
      <path class="cls-2" d="M273.48,57.48c3.74,9.78,6.39,19.98,7.07,30.53,2.37,28.98,4.67,58.73-3.49,86.64-3.67,12.55-9.39,24.46-12.55,37.14-6.95,27.85-1.13,57.1,4.45,85.31"/>
      <path class="cls-2" d="M40.62,26.28c-5.42,16.52-12.49,32.5-20.69,47.84.03-.09.06-.19.89-.31,1.15,27.08,2.31,54.16,4.18,81.19,1.31,20.6,2.62,41.2,3.96,61.86-7.52,15.39-16.42,30.11-25.86,43.99,1.15,10.19,2.3,20.37,3.71,29.89,11.55,7.44,22.37,16.01,32.25,25.57,15.74-.63,31.55.76,46.94,4.13"/>
      <path class="cls-2" d="M33.59,301.31c20.41,4.24,41.23,6.49,62.08,6.91"/>
      <path class="cls-2" d="M233.49,310.11c11.5,1.42,23.24.83,34.52-1.81"/>
    </g>
    <g>
      <path class="cls-2" d="M121.87,317.81c29.26-8.88,61.47-7.69,89.99,3.35"/>
      <path class="cls-2" d="M137.86,324.26c18.69,1.09,37.49.33,56.03-2.28"/>
      <path class="cls-2" d="M121.48,309.44c-8.1,2.42-15.58,6.9-21.53,12.92"/>
      <path class="cls-2" d="M195.54,309.45c10.61.86,19.58,3.76,28.26,8.68-4.25,3.82-11.49,9.01-17.11,10.06-35.61,7.08-73.04,4.84-107.54-6.46"/>
      <path class="cls-2" d="M98.62,326.3c-1.77,2.52-4.06,4.67-6.68,6.28,7.21-.21,14.4-1.29,21.28-3.45"/>
      <path class="cls-2" d="M117.24,331.33l-5.03,4.88c7.13.41,14.32-.24,21.26-1.92"/>
      <path class="cls-2" d="M177.73,334.84c3.16,1.88,6.69,3.15,10.29,3.79,2.17-2.12,4.58-3.98,7.18-5.55"/>
      <path class="cls-2" d="M208.81,330.42c6.52,1.09,13.04,2.19,19.48,3.43-3.53-2.41-7.2-4.63-10.98-6.63"/>
      <path class="cls-2" d="M99.05,333.51l-.17,5.31c40.91,10.97,84.58,11.49,125.35-.13v1.29"/>
      <path class="cls-2" d="M225.16,320.76c6.72,3.02,13.58,5.74,20.52,8.32-7.45-.85-14.91-1.71-22.35-2.61"/>
      <path class="cls-2" d="M144.27,333.6c3.02,2.07,6.04,4.15,9.02,6.21,1.78-1.95,3.95-3.55,6.36-4.63"/>
      <path class="cls-2" d="M140.74,340.7c3.59-.06,7.19.08,10.76.49.87-.03,1.74-.06,2.61-.1,2.86-.54,5.8-.7,8.71-.46"/>
      <path class="cls-2" d="M97.43,320.05c-5.1,2.64-10.55,4.61-16.17,5.92,3.03.68,5.99,1.67,8.84,2.92v.04"/>
      <path class="cls-2" d="M97.43,320.05c-5.1,2.64-10.55,4.61-16.17,5.92,3.03.68,5.99,1.67,8.84,2.92v.04"/>
      <path class="cls-2" d="M40.36,25.52c29.76-4.01,59.28-9.83,88.13-17.69,11.63,40.08,20.25,81.04,26.41,122.32,1.18,1.43,2.36,2.86,3.54,4.3l-.28-.09"/>
      <path class="cls-2" d="M138.83,161.15c4.94-6.71,10.58-12.92,17.08-18.47,11.85-26.01,23.69-52.02,35.08-78.26,3.43-15.37,5.99-30.93,7.7-46.55,6.75-2.82,13.5-5.65,20.13-8.15,20.82,6.58,41.64,13.17,62.14,19.97,7.49,18.03,17.08,35.19,27.94,51.18-2.74,15.86-3.44,32.07-2.33,48.03-2.79,9.44-5.58,18.87-8.27,28.34-2.46,18.42-3.48,37.03-3.05,55.61.03-.09.06-.19.17-.31,7.55,15.99,13.54,32.72,17.74,49.87-1.25,10.43-1.51,20.97-.92,31.28-12.09,7.22-24.18,14.44-36.31,21.6-8.27,1.71-16.32,4.47-23.78,7.14-6.85-.76-13.75-1.02-20.64-.83"/>
      <path class="cls-2" d="M208.1,23.03c6.31,3.75,12.63,7.49,18.94,11.24,12.74-.56,25.6,1.58,37.48,6.23"/>
      <path class="cls-2" d="M273.48,57.48c3.74,9.78,6.39,19.98,7.07,30.53,2.37,28.98,4.67,58.73-3.49,86.64-3.67,12.55-9.39,24.46-12.55,37.14-6.95,27.85-1.13,57.1,4.45,85.31"/>
      <path class="cls-2" d="M40.62,26.28c-5.42,16.52-12.49,32.5-20.69,47.84.03-.09.06-.19.89-.31,1.15,27.08,2.31,54.16,4.18,81.19,1.31,20.6,2.62,41.2,3.96,61.86-7.52,15.39-16.42,30.11-25.86,43.99,1.15,10.19,2.3,20.37,3.71,29.89,11.55,7.44,22.37,16.01,32.25,25.57,15.74-.63,31.55.76,46.94,4.13"/>
      <path class="cls-2" d="M33.59,301.31c20.41,4.24,41.23,6.49,62.08,6.91"/>
      <path class="cls-2" d="M233.49,310.11c11.5,1.42,23.24.83,34.52-1.81"/>
    </g>
    <path class="cls-2" d="M121.87,317.81c29.26-8.88,61.47-7.69,89.99,3.35"/>
    <path class="cls-2" d="M137.86,324.26c18.69,1.09,37.49.33,56.03-2.28"/>
    <path class="cls-2" d="M121.48,309.44c-8.1,2.42-15.58,6.9-21.53,12.92"/>
    <path class="cls-2" d="M195.54,309.45c10.61.86,19.58,3.76,28.26,8.68-4.25,3.82-11.49,9.01-17.11,10.06-35.61,7.08-73.04,4.84-107.54-6.46"/>
    <path class="cls-2" d="M98.62,326.3c-1.77,2.52-4.06,4.67-6.68,6.28,7.21-.21,14.4-1.29,21.28-3.45"/>
    <path class="cls-2" d="M117.24,331.33l-5.03,4.88c7.13.41,14.32-.24,21.26-1.92"/>
    <path class="cls-2" d="M177.73,334.84c3.16,1.88,6.69,3.15,10.29,3.79,2.17-2.12,4.58-3.98,7.18-5.55"/>
    <path class="cls-2" d="M208.81,330.42c6.52,1.09,13.04,2.19,19.48,3.43-3.53-2.41-7.2-4.63-10.98-6.63"/>
    <path class="cls-2" d="M99.05,333.51l-.17,5.31c40.91,10.97,84.58,11.49,125.35-.13v1.29"/>
    <path class="cls-2" d="M225.16,320.76c6.72,3.02,13.58,5.74,20.52,8.32-7.45-.85-14.91-1.71-22.35-2.61"/>
    <path class="cls-2" d="M144.27,333.6c3.02,2.07,6.04,4.15,9.02,6.21,1.78-1.95,3.95-3.55,6.36-4.63"/>
    <path class="cls-2" d="M140.74,340.7c3.59-.06,7.19.08,10.76.49.87-.03,1.74-.06,2.61-.1,2.86-.54,5.8-.7,8.71-.46"/>
    <path class="cls-2" d="M97.43,320.05c-5.1,2.64-10.55,4.61-16.17,5.92,3.03.68,5.99,1.67,8.84,2.92v.04"/>
    <path class="cls-2" d="M97.43,320.05c-5.1,2.64-10.55,4.61-16.17,5.92,3.03.68,5.99,1.67,8.84,2.92v.04"/>
    <path class="cls-2" d="M40.36,25.52c29.76-4.01,59.28-9.83,88.13-17.69,11.63,40.08,20.25,81.04,26.41,122.32,1.18,1.43,2.36,2.86,3.54,4.3l-.28-.09"/>
    <path class="cls-2" d="M138.83,161.15c4.94-6.71,10.58-12.92,17.08-18.47,11.85-26.01,23.69-52.02,35.08-78.26,3.43-15.37,5.99-30.93,7.7-46.55,6.75-2.82,13.5-5.65,20.13-8.15,20.82,6.58,41.64,13.17,62.14,19.97,7.49,18.03,17.08,35.19,27.94,51.18-2.74,15.86-3.44,32.07-2.33,48.03-2.79,9.44-5.58,18.87-8.27,28.34-2.46,18.42-3.48,37.03-3.05,55.61.03-.09.06-.19.17-.31,7.55,15.99,13.54,32.72,17.74,49.87-1.25,10.43-1.51,20.97-.92,31.28-12.09,7.22-24.18,14.44-36.31,21.6-8.27,1.71-16.32,4.47-23.78,7.14-6.85-.76-13.75-1.02-20.64-.83"/>
    <path class="cls-2" d="M208.1,23.03c6.31,3.75,12.63,7.49,18.94,11.24,12.74-.56,25.6,1.58,37.48,6.23"/>
    <path class="cls-2" d="M273.48,57.48c3.74,9.78,6.39,19.98,7.07,30.53,2.37,28.98,4.67,58.73-3.49,86.64-3.67,12.55-9.39,24.46-12.55,37.14-6.95,27.85-1.13,57.1,4.45,85.31"/>
    <path class="cls-2" d="M40.62,26.28c-5.42,16.52-12.49,32.5-20.69,47.84.03-.09.06-.19.89-.31,1.15,27.08,2.31,54.16,4.18,81.19,1.31,20.6,2.62,41.2,3.96,61.86-7.52,15.39-16.42,30.11-25.86,43.99,1.15,10.19,2.3,20.37,3.71,29.89,11.55,7.44,22.37,16.01,32.25,25.57,15.74-.63,31.55.76,46.94,4.13"/>
    <path class="cls-2" d="M33.59,301.31c20.41,4.24,41.23,6.49,62.08,6.91"/>
    <path class="cls-2" d="M233.49,310.11c11.5,1.42,23.24.83,34.52-1.81"/>
  </g>
  <g>
    <g>
      <path class="cls-1" d="M130.61,313.66c29.26-8.88,61.47-7.69,89.99,3.35"/>
      <path class="cls-1" d="M146.59,320.1c18.69,1.09,37.49.33,56.03-2.28"/>
      <path class="cls-1" d="M130.21,305.28c-8.1,2.42-15.58,6.9-21.53,12.92"/>
      <path class="cls-1" d="M204.27,305.3c10.61.86,19.58,3.76,28.26,8.68-4.25,3.82-11.49,9.01-17.11,10.06-35.61,7.08-73.04,4.84-107.54-6.46"/>
      <path class="cls-1" d="M107.35,322.14c-1.77,2.52-4.06,4.67-6.68,6.28,7.21-.21,14.4-1.29,21.28-3.45"/>
      <path class="cls-1" d="M125.98,327.17l-5.03,4.88c7.13.41,14.32-.24,21.26-1.92"/>
      <path class="cls-1" d="M186.47,330.68c3.16,1.88,6.69,3.15,10.29,3.79,2.17-2.12,4.58-3.98,7.18-5.55"/>
      <path class="cls-1" d="M217.55,326.26c6.52,1.09,13.04,2.19,19.48,3.43-3.53-2.41-7.2-4.63-10.98-6.63"/>
      <path class="cls-1" d="M107.79,329.35l-.17,5.31c40.91,10.97,84.58,11.49,125.35-.13v1.29"/>
      <path class="cls-1" d="M233.89,316.6c6.72,3.02,13.58,5.74,20.52,8.32-7.45-.85-14.91-1.71-22.35-2.61"/>
      <path class="cls-1" d="M153,329.45c3.02,2.07,6.04,4.15,9.02,6.21,1.78-1.95,3.95-3.55,6.36-4.63"/>
      <path class="cls-1" d="M149.48,336.55c3.59-.06,7.19.08,10.76.49.87-.03,1.74-.06,2.61-.1,2.86-.54,5.8-.7,8.71-.46"/>
      <path class="cls-1" d="M106.16,315.89c-5.1,2.64-10.55,4.61-16.17,5.92,3.03.68,5.99,1.67,8.84,2.92v.04"/>
      <path class="cls-1" d="M106.16,315.89c-5.1,2.64-10.55,4.61-16.17,5.92,3.03.68,5.99,1.67,8.84,2.92v.04"/>
      <path class="cls-1" d="M49.1,21.37c29.76-4.01,59.28-9.83,88.13-17.69,11.63,40.08,20.25,81.04,26.41,122.32,1.18,1.43,2.36,2.86,3.54,4.3l-.28-.09"/>
      <path class="cls-1" d="M147.57,156.99c4.94-6.71,10.58-12.92,17.08-18.47,11.85-26.01,23.69-52.02,35.08-78.26,3.43-15.37,5.99-30.93,7.7-46.55,6.75-2.82,13.5-5.65,20.13-8.15,20.82,6.58,41.64,13.17,62.14,19.97,7.49,18.03,17.08,35.19,27.94,51.18-2.74,15.86-3.44,32.07-2.33,48.03-2.79,9.44-5.58,18.87-8.27,28.34-2.46,18.42-3.48,37.03-3.05,55.61.03-.09.06-.19.17-.31,7.55,15.99,13.54,32.72,17.74,49.87-1.25,10.43-1.51,20.97-.92,31.28-12.09,7.22-24.18,14.44-36.31,21.6-8.27,1.71-16.32,4.47-23.78,7.14-6.85-.76-13.75-1.02-20.64-.83"/>
      <path class="cls-1" d="M216.83,18.88c6.31,3.75,12.63,7.49,18.94,11.24,12.74-.56,25.6,1.58,37.48,6.23"/>
      <path class="cls-1" d="M282.22,53.32c3.74,9.78,6.39,19.98,7.07,30.53,2.37,28.98,4.67,58.73-3.49,86.64-3.67,12.55-9.39,24.46-12.55,37.14-6.95,27.85-1.13,57.1,4.45,85.31"/>
      <path class="cls-1" d="M49.36,22.13c-5.42,16.52-12.49,32.5-20.69,47.84.03-.09.06-.19.89-.31,1.15,27.08,2.31,54.16,4.18,81.19,1.31,20.6,2.62,41.2,3.96,61.86-7.52,15.39-16.42,30.11-25.86,43.99,1.15,10.19,2.3,20.37,3.71,29.89,11.55,7.44,22.37,16.01,32.25,25.57,15.74-.63,31.55.76,46.94,4.13"/>
      <path class="cls-1" d="M42.32,297.16c20.41,4.24,41.23,6.49,62.08,6.91"/>
      <path class="cls-1" d="M242.22,305.95c11.5,1.42,23.24.83,34.52-1.81"/>
    </g>
    <g>
      <path class="cls-1" d="M130.61,313.66c29.26-8.88,61.47-7.69,89.99,3.35"/>
      <path class="cls-1" d="M146.59,320.1c18.69,1.09,37.49.33,56.03-2.28"/>
      <path class="cls-1" d="M130.21,305.28c-8.1,2.42-15.58,6.9-21.53,12.92"/>
      <path class="cls-1" d="M204.27,305.3c10.61.86,19.58,3.76,28.26,8.68-4.25,3.82-11.49,9.01-17.11,10.06-35.61,7.08-73.04,4.84-107.54-6.46"/>
      <path class="cls-1" d="M107.35,322.14c-1.77,2.52-4.06,4.67-6.68,6.28,7.21-.21,14.4-1.29,21.28-3.45"/>
      <path class="cls-1" d="M125.98,327.17l-5.03,4.88c7.13.41,14.32-.24,21.26-1.92"/>
      <path class="cls-1" d="M186.47,330.68c3.16,1.88,6.69,3.15,10.29,3.79,2.17-2.12,4.58-3.98,7.18-5.55"/>
      <path class="cls-1" d="M217.55,326.26c6.52,1.09,13.04,2.19,19.48,3.43-3.53-2.41-7.2-4.63-10.98-6.63"/>
      <path class="cls-1" d="M107.79,329.35l-.17,5.31c40.91,10.97,84.58,11.49,125.35-.13v1.29"/>
      <path class="cls-1" d="M233.89,316.6c6.72,3.02,13.58,5.74,20.52,8.32-7.45-.85-14.91-1.71-22.35-2.61"/>
      <path class="cls-1" d="M153,329.45c3.02,2.07,6.04,4.15,9.02,6.21,1.78-1.95,3.95-3.55,6.36-4.63"/>
      <path class="cls-1" d="M149.48,336.55c3.59-.06,7.19.08,10.76.49.87-.03,1.74-.06,2.61-.1,2.86-.54,5.8-.7,8.71-.46"/>
      <path class="cls-1" d="M106.16,315.89c-5.1,2.64-10.55,4.61-16.17,5.92,3.03.68,5.99,1.67,8.84,2.92v.04"/>
      <path class="cls-1" d="M106.16,315.89c-5.1,2.64-10.55,4.61-16.17,5.92,3.03.68,5.99,1.67,8.84,2.92v.04"/>
      <path class="cls-1" d="M49.1,21.37c29.76-4.01,59.28-9.83,88.13-17.69,11.63,40.08,20.25,81.04,26.41,122.32,1.18,1.43,2.36,2.86,3.54,4.3l-.28-.09"/>
      <path class="cls-1" d="M147.57,156.99c4.94-6.71,10.58-12.92,17.08-18.47,11.85-26.01,23.69-52.02,35.08-78.26,3.43-15.37,5.99-30.93,7.7-46.55,6.75-2.82,13.5-5.65,20.13-8.15,20.82,6.58,41.64,13.17,62.14,19.97,7.49,18.03,17.08,35.19,27.94,51.18-2.74,15.86-3.44,32.07-2.33,48.03-2.79,9.44-5.58,18.87-8.27,28.34-2.46,18.42-3.48,37.03-3.05,55.61.03-.09.06-.19.17-.31,7.55,15.99,13.54,32.72,17.74,49.87-1.25,10.43-1.51,20.97-.92,31.28-12.09,7.22-24.18,14.44-36.31,21.6-8.27,1.71-16.32,4.47-23.78,7.14-6.85-.76-13.75-1.02-20.64-.83"/>
      <path class="cls-1" d="M216.83,18.88c6.31,3.75,12.63,7.49,18.94,11.24,12.74-.56,25.6,1.58,37.48,6.23"/>
      <path class="cls-1" d="M282.22,53.32c3.74,9.78,6.39,19.98,7.07,30.53,2.37,28.98,4.67,58.73-3.49,86.64-3.67,12.55-9.39,24.46-12.55,37.14-6.95,27.85-1.13,57.1,4.45,85.31"/>
      <path class="cls-1" d="M49.36,22.13c-5.42,16.52-12.49,32.5-20.69,47.84.03-.09.06-.19.89-.31,1.15,27.08,2.31,54.16,4.18,81.19,1.31,20.6,2.62,41.2,3.96,61.86-7.52,15.39-16.42,30.11-25.86,43.99,1.15,10.19,2.3,20.37,3.71,29.89,11.55,7.44,22.37,16.01,32.25,25.57,15.74-.63,31.55.76,46.94,4.13"/>
      <path class="cls-1" d="M42.32,297.16c20.41,4.24,41.23,6.49,62.08,6.91"/>
      <path class="cls-1" d="M242.22,305.95c11.5,1.42,23.24.83,34.52-1.81"/>
    </g>
    <path class="cls-1" d="M130.61,313.66c29.26-8.88,61.47-7.69,89.99,3.35"/>
    <path class="cls-1" d="M146.59,320.1c18.69,1.09,37.49.33,56.03-2.28"/>
    <path class="cls-1" d="M130.21,305.28c-8.1,2.42-15.58,6.9-21.53,12.92"/>
    <path class="cls-1" d="M204.27,305.3c10.61.86,19.58,3.76,28.26,8.68-4.25,3.82-11.49,9.01-17.11,10.06-35.61,7.08-73.04,4.84-107.54-6.46"/>
    <path class="cls-1" d="M107.35,322.14c-1.77,2.52-4.06,4.67-6.68,6.28,7.21-.21,14.4-1.29,21.28-3.45"/>
    <path class="cls-1" d="M125.98,327.17l-5.03,4.88c7.13.41,14.32-.24,21.26-1.92"/>
    <path class="cls-1" d="M186.47,330.68c3.16,1.88,6.69,3.15,10.29,3.79,2.17-2.12,4.58-3.98,7.18-5.55"/>
    <path class="cls-1" d="M217.55,326.26c6.52,1.09,13.04,2.19,19.48,3.43-3.53-2.41-7.2-4.63-10.98-6.63"/>
    <path class="cls-1" d="M107.79,329.35l-.17,5.31c40.91,10.97,84.58,11.49,125.35-.13v1.29"/>
    <path class="cls-1" d="M233.89,316.6c6.72,3.02,13.58,5.74,20.52,8.32-7.45-.85-14.91-1.71-22.35-2.61"/>
    <path class="cls-1" d="M153,329.45c3.02,2.07,6.04,4.15,9.02,6.21,1.78-1.95,3.95-3.55,6.36-4.63"/>
    <path class="cls-1" d="M149.48,336.55c3.59-.06,7.19.08,10.76.49.87-.03,1.74-.06,2.61-.1,2.86-.54,5.8-.7,8.71-.46"/>
    <path class="cls-1" d="M106.16,315.89c-5.1,2.64-10.55,4.61-16.17,5.92,3.03.68,5.99,1.67,8.84,2.92v.04"/>
    <path class="cls-1" d="M106.16,315.89c-5.1,2.64-10.55,4.61-16.17,5.92,3.03.68,5.99,1.67,8.84,2.92v.04"/>
    <path class="cls-1" d="M49.1,21.37c29.76-4.01,59.28-9.83,88.13-17.69,11.63,40.08,20.25,81.04,26.41,122.32,1.18,1.43,2.36,2.86,3.54,4.3l-.28-.09"/>
    <path class="cls-1" d="M147.57,156.99c4.94-6.71,10.58-12.92,17.08-18.47,11.85-26.01,23.69-52.02,35.08-78.26,3.43-15.37,5.99-30.93,7.7-46.55,6.75-2.82,13.5-5.65,20.13-8.15,20.82,6.58,41.64,13.17,62.14,19.97,7.49,18.03,17.08,35.19,27.94,51.18-2.74,15.86-3.44,32.07-2.33,48.03-2.79,9.44-5.58,18.87-8.27,28.34-2.46,18.42-3.48,37.03-3.05,55.61.03-.09.06-.19.17-.31,7.55,15.99,13.54,32.72,17.74,49.87-1.25,10.43-1.51,20.97-.92,31.28-12.09,7.22-24.18,14.44-36.31,21.6-8.27,1.71-16.32,4.47-23.78,7.14-6.85-.76-13.75-1.02-20.64-.83"/>
    <path class="cls-1" d="M216.83,18.88c6.31,3.75,12.63,7.49,18.94,11.24,12.74-.56,25.6,1.58,37.48,6.23"/>
    <path class="cls-1" d="M282.22,53.32c3.74,9.78,6.39,19.98,7.07,30.53,2.37,28.98,4.67,58.73-3.49,86.64-3.67,12.55-9.39,24.46-12.55,37.14-6.95,27.85-1.13,57.1,4.45,85.31"/>
    <path class="cls-1" d="M49.36,22.13c-5.42,16.52-12.49,32.5-20.69,47.84.03-.09.06-.19.89-.31,1.15,27.08,2.31,54.16,4.18,81.19,1.31,20.6,2.62,41.2,3.96,61.86-7.52,15.39-16.42,30.11-25.86,43.99,1.15,10.19,2.3,20.37,3.71,29.89,11.55,7.44,22.37,16.01,32.25,25.57,15.74-.63,31.55.76,46.94,4.13"/>
    <path class="cls-1" d="M42.32,297.16c20.41,4.24,41.23,6.49,62.08,6.91"/>
    <path class="cls-1" d="M242.22,305.95c11.5,1.42,23.24.83,34.52-1.81"/>
  </g>
</svg>