<?xml version="1.0" encoding="UTF-8"?>
<svg id="Capa_1" data-name="Capa 1" xmlns="http://www.w3.org/2000/svg" viewBox="0 0 245.83 332.35">
  <defs>
    <style>
      .cls-1 {
        stroke: #fff;
      }

      .cls-1, .cls-2 {
        fill: none;
        stroke-miterlimit: 10;
        stroke-width: 6px;
      }

      .cls-2 {
        stroke: #46c36c;
      }
    </style>
  </defs>
  <g>
    <path class="cls-2" d="M56.4,203.73c-15.74-.15-31.32,8-40.16,21.02-10.35,15.23-11.09,34.85-13.19,58.7,2,5.27,4,10.53,5.97,15.86,9.9,4.04,18,12.29,22.05,21.87,21.31,12.04,49.49,10.67,69.51-3.4v.54"/>
    <path class="cls-2" d="M66.36,308.89c-8.38,2.28-16.75,4.56-25.36,6.91-9.29-8.52-17.16-18.59-23.24-29.63,0-7.08,0-14.17,0-21.25,6.9-10.72,13.8-21.43,20.8-31.46,10.47-1.53,20.94-3.06,31.41-4.59,2.05-8.88,2.45-18.14,1.16-27.45-5.82.4-11.64.8-17.47,1.2"/>
    <path class="cls-2" d="M46.1,233.86l.43,21.17c13.94,8.87,27.88,17.75,42.09,26.5,30.88-2.38,61.75-4.76,92.61-7.34,5.67-10.05,9.9-20.91,12.53-32.15-3.45-2-6.9-4-10.35-5.99v.54"/>
    <path class="cls-2" d="M45.31,255.63c.34,4.66.68,9.32,1.16,13.68,14.35,6.59,28.22,14.21,41.08,23.87,32.63-4.86,65.61-7.44,98.4-8.63,1.87-5.67,3.74-11.33,5.14-17.04l2.56-23.09"/>
    <path class="cls-2" d="M46.67,245.06c-2.84-.11-5.68-.23-8.7-.37-1.12,6.6-2.24,13.19-3.35,19.81,0,11.48,0,22.96.55,33.83,17.26,6.08,34.51,12.17,53.09,19.2,37.18-2.05,74.36-4.1,111.52-6.65,0-.11,0-.23.7-.34,1.71-7.73,3.42-15.46,4.72-23.19-.57-9.66-1.14-19.32-1.71-28.98"/>
    <path class="cls-2" d="M37.03,271.02c1.59,3.19,3.17,6.37,5.91,10.48,13.45,5.95,26.89,11.89,41.24,18.09,37.02-.73,73.95-6.06,110.97-16.06,2.82-8.42,5.65-16.84,8.72-25.17v.68"/>
    <path class="cls-2" d="M36.1,46.6c0,8.18,0,16.37.75,25.41,16.77,7.06,33.54,14.13,51.08,22.03,37.28.76,74.63-1.7,111.51-7.19-.11-.8-.23-1.59-.34-2.39"/>
    <path class="cls-2" d="M203.19,37.05c-1.43,8.96-2.67,17.94-3.91,26.92-39.52,3.29-77.84,6.15-116.16,9-13.62-10.84-31.08-18.95-49.14-25.36,3.17-9.57,5.04-19.58,5.18-28.44,31.25-1.77,62.51-3.55,93.76-5.32"/>
    <path class="cls-2" d="M175.24,22.69c9.71,3.68,19.16,8.05,28.24,13.08"/>
    <path class="cls-2" d="M100.1,166.04c7.17,8.05,15.85,14.76,25.44,19.68,8.83-5.43,17.67-10.85,26.5-16.28"/>
    <path class="cls-2" d="M134.65,145.79l17.19,19.41c0-.43.01-.87-17.19-19.41Z"/>
    <path class="cls-2" d="M143.89,143.23c6.4-1.94,12.5-4.9,17.09-10.72l-8.61-26.34"/>
    <path class="cls-2" d="M118.01,112.05c1.83,5.52,5.04,10.57,9.25,14.58"/>
    <path class="cls-2" d="M115.21,119.91c-4.07,6.04-9.02,11.48-14.65,16.11,7.32,7.62,14.63,15.24,21.95,22.85,2.7-2.28,5.4-4.57,8.1-6.85"/>
    <path class="cls-2" d="M147.61,144.47l6.22,5.29c-1.9,3.45-3.81,6.9-5.71,10.35-.07-.44-.14-.88-.51-15.65Z"/>
    <path class="cls-2" d="M128.85,188.11c2.25,2.18,5.12,3.72,8.18,4.4,0-4.93,2.39-9.82-8.18-4.4Z"/>
    <path class="cls-2" d="M100.21,163.9c2.98-3.26,5.12-7.29,6.14-11.59"/>
    <path class="cls-2" d="M59.65,98.48c-.21,52.22-.41,104.44-.62,156.67"/>
    <path class="cls-2" d="M180.08,120.43c3.15,46.55,3.71,93.28,1.97,139.18-26.76,4.2-53.52,8.4-79.96,12.21l-42.85-17.76"/>
    <path class="cls-2" d="M150.37,37.78l9.15-14.33c12.7-3.5,26.05-4.62,39.16-3.28.79,7.78,9.16,12.3,12.96,19.14,3.98,7.18,2.49,16.1.2,23.98s-5.33,15.96-4.23,25.65c-10.36,4.36-20.72,8.72-31.08,13.08-3.06,1.29-6.41,2.86-7.64,5.94-2.27,5.66,4.15,11.7,2.5,15.21,20.75-3.1,40.43-14.62,52.01-32.11,11.58-17.5,14.36-40.9,5.8-60.05-13.3-18.72-36.87-29.63-59.75-27.66s-44.23,16.76-51.86,38.13c11.49,5.38,26.74,5.79,32.78-3.68Z"/>
    <path class="cls-2" d="M54.37,93.21c10.05,7.55,20.63,15.34,33.03,17.37,7.54,1.24,15.24.24,22.82-.76,25.82-3.39,51.64-6.79,77.72-8.46v-17.34"/>
    <path class="cls-2" d="M49.78,79.98l2.31,17.34"/>
  </g>
  <g>
    <path class="cls-1" d="M65.05,203.62c-15.74-.15-31.32,8-40.16,21.02-10.35,15.23-11.09,34.85-13.19,58.7,2,5.27,4,10.53,5.97,15.86,9.9,4.04,18,12.29,22.05,21.87,21.31,12.04,49.49,10.67,69.51-3.4v.54"/>
    <path class="cls-1" d="M75,308.78c-8.38,2.28-16.75,4.56-25.36,6.91-9.29-8.52-17.16-18.59-23.24-29.63,0-7.08,0-14.17,0-21.25,6.9-10.72,13.8-21.43,20.8-31.46,10.47-1.53,20.94-3.06,31.41-4.59,2.05-8.88,2.45-18.14,1.16-27.45-5.82.4-11.64.8-17.47,1.2"/>
    <path class="cls-1" d="M54.74,233.75l.43,21.17c13.94,8.87,27.88,17.75,42.09,26.5,30.88-2.38,61.75-4.76,92.61-7.34,5.67-10.05,9.9-20.91,12.53-32.15-3.45-2-6.9-4-10.35-5.99v.54"/>
    <path class="cls-1" d="M53.95,255.52c.34,4.66.68,9.32,1.16,13.68,14.35,6.59,28.22,14.21,41.08,23.87,32.63-4.86,65.61-7.44,98.4-8.63,1.87-5.67,3.74-11.33,5.14-17.04l2.56-23.09"/>
    <path class="cls-1" d="M55.32,244.95c-2.84-.11-5.68-.23-8.7-.37-1.12,6.6-2.24,13.19-3.35,19.81,0,11.48,0,22.96.55,33.83,17.26,6.08,34.51,12.17,53.09,19.2,37.18-2.05,74.36-4.1,111.52-6.65,0-.11,0-.23.7-.34,1.71-7.73,3.42-15.46,4.72-23.19-.57-9.66-1.14-19.32-1.71-28.98"/>
    <path class="cls-1" d="M45.68,270.91c1.59,3.19,3.17,6.37,5.91,10.48,13.45,5.95,26.89,11.89,41.24,18.09,37.02-.73,73.95-6.06,110.97-16.06,2.82-8.42,5.65-16.84,8.72-25.17v.68"/>
    <path class="cls-1" d="M44.75,46.49c0,8.18,0,16.37.75,25.41,16.77,7.06,33.54,14.13,51.08,22.03,37.28.76,74.63-1.7,111.51-7.19-.11-.8-.23-1.59-.34-2.39"/>
    <path class="cls-1" d="M211.84,36.94c-1.43,8.96-2.67,17.94-3.91,26.92-39.52,3.29-77.84,6.15-116.16,9-13.62-10.84-31.08-18.95-49.14-25.36,3.17-9.57,5.04-19.58,5.18-28.44,31.25-1.77,62.51-3.55,93.76-5.32"/>
    <path class="cls-1" d="M183.89,22.58c9.71,3.68,19.16,8.05,28.24,13.08"/>
    <path class="cls-1" d="M108.75,165.93c7.17,8.05,15.85,14.76,25.44,19.68,8.83-5.43,17.67-10.85,26.5-16.28"/>
    <path class="cls-1" d="M143.29,145.68l17.19,19.41c0-.43.01-.87-17.19-19.41Z"/>
    <path class="cls-1" d="M152.54,143.12c6.4-1.94,12.5-4.9,17.09-10.72l-8.61-26.34"/>
    <path class="cls-1" d="M126.66,111.94c1.83,5.52,5.04,10.57,9.25,14.58"/>
    <path class="cls-1" d="M123.86,119.8c-4.07,6.04-9.02,11.48-14.65,16.11,7.32,7.62,14.63,15.24,21.95,22.85,2.7-2.28,5.4-4.57,8.1-6.85"/>
    <path class="cls-1" d="M156.25,144.35l6.22,5.29c-1.9,3.45-3.81,6.9-5.71,10.35-.07-.44-.14-.88-.51-15.65Z"/>
    <path class="cls-1" d="M137.5,188c2.25,2.18,5.12,3.72,8.18,4.4,0-4.93,2.39-9.82-8.18-4.4Z"/>
    <path class="cls-1" d="M108.85,163.79c2.98-3.26,5.12-7.29,6.14-11.59"/>
    <path class="cls-1" d="M68.3,98.37c-.21,52.22-.41,104.44-.62,156.67"/>
    <path class="cls-1" d="M188.73,120.32c3.15,46.55,3.71,93.28,1.97,139.18-26.76,4.2-53.52,8.4-79.96,12.21l-42.85-17.76"/>
    <path class="cls-1" d="M159.02,37.67l9.15-14.33c12.7-3.5,26.05-4.62,39.16-3.28.79,7.78,9.16,12.3,12.96,19.14,3.98,7.18,2.49,16.1.2,23.98s-5.33,15.96-4.23,25.65c-10.36,4.36-20.72,8.72-31.08,13.08-3.06,1.29-6.41,2.86-7.64,5.94-2.27,5.66,4.15,11.7,2.5,15.21,20.75-3.1,40.43-14.62,52.01-32.11,11.58-17.5,14.36-40.9,5.8-60.05-13.3-18.72-36.87-29.63-59.75-27.66s-44.23,16.76-51.86,38.13c11.49,5.38,26.74,5.79,32.78-3.68Z"/>
    <path class="cls-1" d="M63.02,93.1c10.05,7.55,20.63,15.34,33.03,17.37,7.54,1.24,15.24.24,22.82-.76,25.82-3.39,51.64-6.79,77.72-8.46v-17.34"/>
    <path class="cls-1" d="M58.43,79.87l2.31,17.34"/>
  </g>
</svg>