<?xml version="1.0" encoding="UTF-8"?>
<svg id="Capa_1" data-name="Capa 1" xmlns="http://www.w3.org/2000/svg" viewBox="0 0 296.15 160.09">
  <defs>
    <style>
      .cls-1 {
        stroke: #fff;
      }

      .cls-1, .cls-2 {
        fill: none;
        stroke-miterlimit: 10;
        stroke-width: 6px;
      }

      .cls-2 {
        stroke: #46c36c;
      }
    </style>
  </defs>
  <g>
    <path class="cls-2" d="M6.57,36.52c4.63,6.4,9.26,12.81,13.88,19.21,7.89-4.14,16.68-6.54,26.32-4.9-7.03,1.79-12.54,8.39-12.73,15.39,3.84,4.13,8.46,7.53,13.52,10.67,5.13-1.22,10.58-1.05,15.51,1.05,16.57,2.85,33.65,2.7,50.29.15,30.36-6.22,61.98-6.23,92.28.31-.31,0-.61,0-.37.14,8.09-4.11,17.28-6.02,26.33-5.48,7.11.43,14.36,2.31,21.23.45"/>
    <path class="cls-2" d="M178.02,97.92c-5.32,8.55-9.38,17.89-12.43,28.25-5.75-2.45-12.71-1.83-17.93,1.6-5.8,3.81-9.16,10.5-14.82,14.53"/>
    <path class="cls-2" d="M7.06,36.79c1.53,19.22.22,38.66-3.93,57.49.98,2.55,1.95,5.11,3.12,7.47,5.56,5.38,11.11,10.76,16.9,15.71,5.46,1.44,10.91,2.87,16.37,4.28"/>
    <path class="cls-2" d="M25.88,80.85c2.96,5.83,5.93,11.65,8.8,17.5.27,5.03.55,10.07.68,15.18,3.93,8.97,7.85,17.94,11.73,26.92"/>
    <path class="cls-2" d="M48.19,77.79c1.32,18.79,1.15,37.69-.42,56.46"/>
    <path class="cls-2" d="M47.54,140.49c15.2.67,30.36,2.27,46.33,4.06,2.46-1.54,4.92-3.09,7.74-4.39,10.31-16.47,19.39-33.7,27.43-51.39l.03.14"/>
    <path class="cls-2" d="M103.63,141.65c4.41-.64,8.91-.7,13.34-.18"/>
    <path class="cls-2" d="M111.51,137.43c6.25,3.38,12.66,6.46,18.83,9.6,12.61-.53,25.33,1.72,37,6.54l-.14.03s2.18.7,1.84,1.01c9.79-1.11,19.49-3.05,28.98-5.72,27.49-12.44,56.22-22.16,85.62-28.95"/>
    <path class="cls-2" d="M264.4,57.23c5.59,1.3,11.19,2.61,16.71,4.23l-.05-.19"/>
    <path class="cls-2" d="M281.05,62.57c.92,19.19,1.83,38.38,2.75,57.58"/>
    <path class="cls-2" d="M76.36,17.28l8.91-7.4c9.36-1.61,18.58-4.04,27.57-6.88,11.99-.03,23.97,2.91,34.58,8.5"/>
    <path class="cls-2" d="M139.38,12.61c6.15.01,12.28,1.97,17.41,5.55,7.47-3.04,14.95-6.09,22.62-9.61,11.4,3.55,23.54,3.63,35.45,4.47s24.2,2.61,34.28,9.02c9.2,5.85,15.71,15.01,21.97,23.93-8.14,9.93-20.84,15.95-33.67,16.21l.2-.05"/>
    <path class="cls-2" d="M6.11,36c8.25.25,16.5.5,25.21.78,1.05-4.29,2.51-9.11,6.49-11.01,2.25-1.07,4.86-.96,7.35-.94,11.14.07,22.3-2.38,32.64-6.64"/>
    <path class="cls-2" d="M73.04,67.85c9.01-3.93,18.02-7.87,27-11.47,13.14,2.88,26.4,5.19,39.69,7.27,7.81-4.69,16.1-8.56,24.71-11.53l-.41-8.89"/>
    <path class="cls-2" d="M116.55,48.74l1.74-11.2c19.1-9.13,42.22-9.41,61.53-.74,8.19-3.86,16.38-7.72,24.58-11.57"/>
    <path class="cls-2" d="M183.57,44.84c10.69-5.18,21.39-10.36,32.08-15.54"/>
    <path class="cls-2" d="M65.47,62.8c11.86-6.23,24.17-11.62,36.79-16.12"/>
  </g>
  <g>
    <path class="cls-1" d="M15.92,37.99l13.88,19.21c7.89-4.14,16.68-6.54,26.32-4.9-7.03,1.79-12.54,8.39-12.73,15.39,3.84,4.13,8.46,7.53,13.52,10.67,5.13-1.22,10.58-1.05,15.51,1.05,16.57,2.85,33.65,2.7,50.29.15,30.36-6.22,61.98-6.23,92.28.31-.31,0-.61,0-.37.14,8.09-4.11,17.28-6.02,26.33-5.48,7.11.43,14.36,2.31,21.23.45"/>
    <path class="cls-1" d="M187.37,99.39c-5.32,8.55-9.38,17.89-12.43,28.25-5.75-2.45-12.71-1.83-17.93,1.6-5.8,3.81-9.16,10.5-14.82,14.53"/>
    <path class="cls-1" d="M16.41,38.25c1.53,19.22.22,38.66-3.93,57.49.98,2.55,1.95,5.11,3.12,7.47,5.56,5.38,11.11,10.76,16.9,15.71,5.46,1.44,10.91,2.87,16.37,4.28"/>
    <path class="cls-1" d="M35.23,82.32c2.96,5.83,5.93,11.65,8.8,17.5.27,5.03.55,10.07.68,15.18,3.93,8.97,7.85,17.94,11.73,26.92"/>
    <path class="cls-1" d="M57.55,79.26c1.32,18.79,1.15,37.69-.42,56.46"/>
    <path class="cls-1" d="M56.89,141.95c15.2.67,30.36,2.27,46.33,4.06,2.46-1.54,4.92-3.09,7.74-4.39,10.31-16.47,19.39-33.7,27.43-51.39l.03.14"/>
    <path class="cls-1" d="M112.98,143.12c4.41-.64,8.91-.7,13.34-.18"/>
    <path class="cls-1" d="M120.86,138.9c6.25,3.38,12.66,6.46,18.83,9.6,12.61-.53,25.33,1.72,37,6.54l-.14.03s2.18.7,1.84,1.01c9.79-1.11,19.49-3.05,28.98-5.72,27.49-12.44,56.22-22.16,85.62-28.95"/>
    <path class="cls-1" d="M273.75,58.7c5.59,1.3,11.19,2.61,16.71,4.23l-.05-.19"/>
    <path class="cls-1" d="M290.4,64.03c.92,19.19,1.83,38.38,2.75,57.58"/>
    <path class="cls-1" d="M85.71,18.75l8.91-7.4c9.36-1.61,18.58-4.04,27.57-6.88,11.99-.03,23.97,2.91,34.58,8.5"/>
    <path class="cls-1" d="M148.73,14.08c6.15.01,12.28,1.97,17.41,5.55,7.47-3.04,14.95-6.09,22.62-9.61,11.4,3.55,23.54,3.63,35.45,4.47s24.2,2.61,34.28,9.02c9.2,5.85,15.71,15.01,21.97,23.93-8.14,9.93-20.84,15.95-33.67,16.21l.2-.05"/>
    <path class="cls-1" d="M15.46,37.47c8.25.25,16.5.5,25.21.78,1.05-4.29,2.51-9.11,6.49-11.01,2.25-1.07,4.86-.96,7.35-.94,11.14.07,22.3-2.38,32.64-6.64"/>
    <path class="cls-1" d="M82.39,69.32c9.01-3.93,18.02-7.87,27-11.47,13.14,2.88,26.4,5.19,39.69,7.27,7.81-4.69,16.1-8.56,24.71-11.53l-.41-8.89"/>
    <path class="cls-1" d="M125.9,50.2l1.74-11.2c19.1-9.13,42.22-9.41,61.53-.74,8.19-3.86,16.38-7.72,24.58-11.57"/>
    <path class="cls-1" d="M192.92,46.31c10.69-5.18,21.39-10.36,32.08-15.54"/>
    <path class="cls-1" d="M74.82,64.27c11.86-6.23,24.17-11.62,36.79-16.12"/>
  </g>
</svg>