<?xml version="1.0" encoding="UTF-8"?>
<svg id="Capa_1" data-name="Capa 1" xmlns="http://www.w3.org/2000/svg" viewBox="0 0 191.3 191.3">
  <defs>
    <style>
      .cls-1 {
        fill: #46c36c;
      }

      .cls-2 {
        fill: #fffcf2;
      }
    </style>
  </defs>
  <g>
    <path class="cls-1" d="M2.43,27.81c50.05,20.69,98.28,45.72,144.16,74.44,13.32,8.34,26.44,17,39.37,25.94,3.89,2.69,7.56-3.65,3.7-6.32-45.48-31.46-93.46-59.29-143.57-82.77-13.76-6.45-27.67-12.55-41.71-18.35C.02,18.96-1.88,26.03,2.43,27.81h0Z"/>
    <path class="cls-1" d="M111.79,1.9c-28.05,61.27-56.1,122.54-84.15,183.81-1.95,4.25,4.38,7.97,6.34,3.69C62.02,128.13,90.07,66.86,118.12,5.59c1.95-4.25-4.38-7.97-6.34-3.69h0Z"/>
  </g>
  <path class="cls-2" d="M117.41,3.69C85.7,61.33,52.3,118.04,17.2,173.7c-2.52,4,3.83,7.67,6.34,3.69C58.64,121.73,92.04,65.03,123.75,7.38c2.27-4.13-4.06-7.83-6.34-3.69h0Z"/>
  <path class="cls-2" d="M6.76,18.46c56.73,17.8,109.81,45.74,157.39,81.23,3.78,2.82,7.45-3.53,3.7-6.32C119.77,57.51,66.03,29.39,8.71,11.41c-4.52-1.42-6.45,5.64-1.95,7.05h0Z"/>
</svg>