<?xml version="1.0" encoding="UTF-8"?>
<svg id="Capa_2" data-name="Capa 2" xmlns="http://www.w3.org/2000/svg" viewBox="0 0 191.3 191.3">
  <defs>
    <style>
      .cls-1 {
        fill: #46c36c;
      }

      .cls-2 {
        fill: #fff;
      }
    </style>
  </defs>
  <g id="Capa_1-2" data-name="Capa 1">
    <g>
      <g>
        <path class="cls-1" d="M1.79,38.12c9.65,35.28,19.31,70.56,28.96,105.85,2.41,8.82,4.83,17.64,7.24,26.46,1.82,6.65,3.57,13.8,9.86,17.67,5.84,3.59,13.25,3.23,19.82,3.16,9.22-.09,18.44-.18,27.66-.27,20.88-.2,41.76-.4,62.65-.61,1.89-.02,3.79-1.66,3.66-3.66-3.13-51.35,5.59-102.69,24.91-150.35.97-2.4-1.44-4.45-3.53-4.63-54.14-4.78-108.67-3.03-162.4,5.07-4.65.7-2.67,7.76,1.95,7.06,53.06-8,107.01-9.54,160.45-4.81l-3.53-4.63c-19.53,48.18-28.34,100.38-25.17,152.29l3.66-3.66c-17.36.17-34.71.34-52.07.5-8.68.08-17.36.17-26.03.25-7.66.07-16.09,1.13-23.66-.36-8.46-1.66-9.64-9.38-11.6-16.54-2.27-8.3-4.54-16.6-6.82-24.91-4.54-16.6-9.09-33.21-13.63-49.81-5.11-18.68-10.22-37.36-15.33-56.04-1.24-4.54-8.31-2.61-7.07,1.95h0Z"/>
        <path class="cls-1" d="M63.57,28.84c.42-8.37.45-16.75.46-25.13-1.22,1.22-2.44,2.44-3.66,3.66,26.26,0,52.51,0,78.77-.05-1.18-1.54-2.36-3.09-3.53-4.63-.08.75-.21,1.48-.4,2.21-.7,1.64.56,2.09,3.76,1.33,1.06.88-1.79,1.21.17,1.09-1.22-1.22-2.44-2.44-3.66-3.66-1.27,10.88-2.54,21.76-3.81,32.64-.55,4.67,6.79,4.63,7.33,0,1.27-10.88,2.54-21.76,3.81-32.64.22-1.89-1.86-3.76-3.66-3.66-4.86.28-9.85,4.69-6.51,9.75,1.22,1.85,3.42,2.85,5.59,2.18,3.1-.95,4.04-4.48,4.46-7.29.34-2.3-.92-4.64-3.53-4.63-26.26.05-52.51.05-78.77.05-1.98,0-3.66,1.68-3.66,3.66,0,8.38-.03,16.75-.46,25.13-.24,4.71,7.09,4.7,7.33,0h0Z"/>
        <path class="cls-1" d="M138.33,177.55h-70.98c-10.88-41.34-15.99-81.89-26.88-123.23,19.74-4.04,40.45-8.31,71.6-6.99,19.24.81,36.21,3.28,50.4,6.2-8.04,41.34-16.09,82.68-24.13,124.02Z"/>
      </g>
      <path class="cls-2" d="M.37,33.32c15.37,33.38,27.32,68.3,35.7,104.08,3.17,13.54,4.5,29.4,13.13,40.86,10.13,13.44,28.59,10.89,43.55,11.16,21.72.4,43.44.32,65.16-.2,2.26-.05,4.32-2.31,3.53-4.63-4.1-12.12-2.97-24.77-.33-37.08,2.66-12.44,6.29-24.69,9.57-36.98,6.83-25.64,13.66-51.29,20.5-76.93.6-2.24-1.13-4.7-3.53-4.63-47.88,1.35-95.67,4.93-143.22,10.71-4.62.56-4.68,7.89,0,7.32,47.55-5.79,95.34-9.36,143.22-10.71l-3.53-4.63c-7.11,26.68-14.22,53.36-21.32,80.04-6.3,23.66-16.66,50.43-8.41,74.84l3.53-4.63c-18.5.44-37,.57-55.51.35-9.12-.11-18.23-.3-27.35-.58-7.64-.23-14.73-1.02-19.74-7.39-3.97-5.05-5.92-11.51-7.47-17.64-1.9-7.51-3.28-15.14-5.06-22.68-3.98-16.82-8.76-33.45-14.31-49.82-6.29-18.55-13.59-36.74-21.78-54.52-1.97-4.28-8.29-.56-6.33,3.7H.37Z"/>
      <path class="cls-2" d="M65.72,31.72c.54-7.31.38-14.57-.5-21.85-1.22,1.22-2.44,2.44-3.66,3.66,24.61-2.27,49.31-3.22,74.02-2.86l-3.66-3.66c-.33,11.47-.66,22.94-.99,34.41-.14,4.71,7.19,4.71,7.33,0,.33-11.47.66-22.94.99-34.41.06-2-1.73-3.63-3.66-3.66-24.71-.36-49.41.59-74.02,2.86-1.79.16-3.92,1.55-3.66,3.66.87,7.28,1.04,14.54.5,21.85-.35,4.7,6.98,4.68,7.33,0h0Z"/>
      <path class="cls-2" d="M62.37,172.59c20.97-1.99,42.02-3.05,63.09-3.15,4.71-.02,4.72-7.35,0-7.32-21.07.11-42.11,1.16-63.09,3.15-4.65.44-4.7,7.77,0,7.32h0Z"/>
      <path class="cls-2" d="M57.65,161.22c22.86.27,45.73.54,68.59.81,4.72.06,4.72-7.27,0-7.32-22.86-.27-45.73-.54-68.59-.81-4.72-.06-4.72,7.27,0,7.32h0Z"/>
      <path class="cls-2" d="M54.52,148.99c24.68.32,49.37.63,74.05.95,4.72.06,4.72-7.26,0-7.32-24.68-.32-49.37-.63-74.05-.95-4.72-.06-4.72,7.26,0,7.32h0Z"/>
      <path class="cls-2" d="M49.85,135.52c24.17-.44,48.34-.24,72.49.58,4.72.16,4.71-7.16,0-7.32-24.16-.83-48.33-1.02-72.49-.58-4.71.09-4.72,7.41,0,7.32h0Z"/>
      <path class="cls-2" d="M52.2,121.8c21.86-1.04,43.73-.36,65.49,2.03,4.68.51,4.64-6.81,0-7.32-21.75-2.38-43.63-3.06-65.49-2.03-4.69.22-4.72,7.54,0,7.32h0Z"/>
      <path class="cls-2" d="M42.06,110.31c31.96-.05,63.91-.11,95.87-.16,4.71,0,4.72-7.33,0-7.32-31.96.05-63.91.11-95.87.16-4.71,0-4.72,7.33,0,7.32h0Z"/>
      <path class="cls-2" d="M37.42,97.72c28.52-2.35,57.09-3.98,85.69-4.91,4.7-.15,4.72-7.47,0-7.32-28.6.93-57.17,2.56-85.69,4.91-4.67.38-4.71,7.71,0,7.32h0Z"/>
      <path class="cls-2" d="M30.37,83.7c31.69-.71,63.39-1.41,95.08-2.12,4.71-.1,4.72-7.43,0-7.32-31.69.71-63.39,1.41-95.08,2.12-4.71.1-4.72,7.43,0,7.32h0Z"/>
      <path class="cls-2" d="M30.36,71.54c29.67-.44,59.31-1.78,88.89-4.02,4.67-.35,4.71-7.68,0-7.32-29.58,2.24-59.23,3.58-88.89,4.02-4.71.07-4.72,7.39,0,7.32h0Z"/>
      <path class="cls-2" d="M24.89,57.98c29.49-3.84,59.28-4.41,88.89-1.69,4.69.43,4.66-6.89,0-7.32-29.61-2.72-59.4-2.15-88.89,1.69-4.61.6-4.67,7.93,0,7.32h0Z"/>
    </g>
  </g>
</svg>