<?xml version="1.0" encoding="UTF-8"?>
<svg id="Capa_2" data-name="Capa 2" xmlns="http://www.w3.org/2000/svg" viewBox="0 0 197.16 197.3">
  <defs>
    <style>
      .cls-1 {
        fill: #46c36c;
      }

      .cls-2 {
        fill: #fff;
      }
    </style>
  </defs>
  <g id="Capa_1-2" data-name="Capa 1">
    <g>
      <path class="cls-1" d="M4.17,5.62c62.84,36.95,125.68,73.9,188.52,110.86l.72-5.48c-51.79,16.72-101.14,39.59-150.29,62.75l4.1,4.1c6.53-14.86,13.05-29.71,19.58-44.57,2.83-6.45,6.56-13.11,8.2-20,1.53-6.42-.09-12.23-3.21-17.89-7.4-13.45-15.64-25.89-21.26-40.31s-9.07-28.25-10.79-42.98c-.44-3.79-6.45-3.83-6,0,3.19,27.41,12.74,53.53,27.15,77.02,3.63,5.91,9.25,12.53,8.76,19.88-.51,7.83-5.72,15.96-8.83,23.04-6.27,14.26-12.53,28.53-18.8,42.79-1.22,2.77,1.27,5.44,4.1,4.1,48.69-22.93,97.56-45.58,148.86-62.14,2.42-.78,3.01-4.14.72-5.48C132.88,74.34,70.04,37.39,7.2.44,3.87-1.53.84,3.66,4.17,5.62h0Z"/>
      <path class="cls-2" d="M1.4,23.16c59.34,37.9,121.05,71.99,184.41,102.68l.72-5.48c-55.19,15.73-105.37,43.06-154.93,71.37l4.41,1.79c-2.83-12.39,2.27-24.2,8.32-34.8,6.3-11.04,13.93-21.31,19.51-32.76,10-20.55,8.86-43.3-2.77-62.97-7.29-12.33-17.73-22.34-29.38-30.53-3.17-2.22-6.17,2.98-3.03,5.18,24.61,17.29,43.74,46.61,33.27,77.43-9.01,26.53-38.68,49.55-31.71,80.05.44,1.92,2.79,2.72,4.41,1.79,49.12-28.06,98.8-55.17,153.5-70.76,2.33-.66,3.12-4.32.72-5.48C125.47,89.98,63.77,55.89,4.42,17.98c-3.26-2.08-6.28,3.11-3.03,5.18h0Z"/>
    </g>
  </g>
</svg>