<?xml version="1.0" encoding="UTF-8"?>
<svg id="Capa_2" data-name="Capa 2" xmlns="http://www.w3.org/2000/svg" viewBox="0 0 197.36 197.29">
  <defs>
    <style>
      .cls-1 {
        fill: #46c36c;
      }

      .cls-2 {
        fill: #fff;
      }
    </style>
  </defs>
  <g id="Capa_1-2" data-name="Capa 1">
    <g>
      <path class="cls-1" d="M.91,155.27c12.32,11.83,22.32,25.58,30.49,40.55,1.06,1.95,4.12,1.96,5.18,0,29.57-54.66,64.38-106.58,105.04-153.64,11-12.73,22.43-25.08,34.26-37.05,2.72-2.75-1.52-6.99-4.24-4.24-42.95,43.45-80.41,92.16-112.56,144.07-9.7,15.66-18.91,31.63-27.68,47.83h5.18c-8.4-15.39-18.76-29.6-31.43-41.76-2.79-2.67-7.03,1.56-4.24,4.24h0Z"/>
      <path class="cls-2" d="M4.05,148.64c14.98,11.65,27.21,26.15,37.11,42.29,1.23,2,3.93,1.87,5.18,0,34.26-51.23,72.3-99.92,114.42-144.94,11.6-12.4,23.5-24.5,35.69-36.31,2.78-2.69-1.47-6.93-4.24-4.24-43.72,42.36-83.57,88.61-119.64,137.64-10.81,14.7-21.27,29.65-31.41,44.82h5.18c-10.16-16.54-22.69-31.55-38.05-43.5-3.01-2.34-7.29,1.87-4.24,4.24h0Z"/>
    </g>
  </g>
</svg>