<?xml version="1.0" encoding="UTF-8"?>
<svg id="Capa_2" data-name="Capa 2" xmlns="http://www.w3.org/2000/svg" viewBox="0 0 197.22 197.32">
  <defs>
    <style>
      .cls-1 {
        fill: #46c36c;
      }

      .cls-2 {
        fill: #fff;
      }
    </style>
  </defs>
  <g id="Capa_1-2" data-name="Capa 1">
    <g>
      <path class="cls-1" d="M76.39,49.62c4.79-8.59,9.7-17.1,14.77-25.52,2.45-4.08,4.94-8.13,7.47-12.16.67-1.07,1.31-2.18,2.03-3.22,1.12-1.62.79-1.74,2.79-1.25,2.55.64,3.69,4.87,4.79,7.12,4.37,8.93,8.74,17.86,13.11,26.8,3.59,7.33,6.29,15.08,14.43,18.27,8.37,3.28,18.28,3.9,27.08,5.5,4.8.87,9.6,1.74,14.4,2.62,1.25.23,4.42.2,5.34,1.08,1.91,1.84,1.21,4.27-.2,5.85-.94,1.05-2.02,1.98-3.03,2.96-6.24,6.1-11.97,12.69-17.23,19.65-4.84,6.42-10.69,13.66-13.06,21.46-2.85,9.38,1.5,20.02,2.85,29.35,1.72,11.92,2.1,23.99,1.46,36.01l3-3c-11.41-.12-19.9-9.33-28.8-15.28-4.72-3.16-9.72-5.9-14.92-8.19-4.69-2.07-9.86-4.55-15.09-4.3-4.83.23-8.82,3.18-12.77,5.66-5.01,3.15-10.03,6.29-15.15,9.25-10.5,6.08-21.41,11.31-33.19,14.41l3.8,2.89c1.3-20.48,3.08-40.92,5.39-61.31.45-4.01,1.64-8.56.46-12.55-.79-2.69-2.75-4.89-4.58-6.93-5.53-6.16-12.17-11.18-18.54-16.42-3.08-2.53-6.12-5.11-8.97-7.9-1.76-1.73-8.33-7.29-7.05-9.7.44-.83,6.65-1.51,7.71-1.75,1.93-.44,3.85-.87,5.78-1.31,5.14-1.16,10.27-2.33,15.41-3.49,8.59-1.95,17.49-3.39,25.87-6.13,6.22-2.03,12.04-5.26,14.99-11.36,1.67-3.46-3.5-6.51-5.18-3.03-3.62,7.5-12.55,9.11-19.94,10.8-9.63,2.19-19.27,4.37-28.9,6.55-5.14,1.16-10.29,2.27-15.41,3.49-2.82.67-5.96,1.3-6.89,4.49-1.74,5.92,6.31,12.73,9.94,16.23,5.96,5.73,12.67,10.6,18.91,16.02,3.16,2.74,6.51,5.62,9.08,8.94,3.17,4.1,1.97,8.23,1.42,13.05-2.36,20.72-4.17,41.49-5.5,62.3-.13,1.98,2.01,3.36,3.8,2.89,10.52-2.77,20.47-7.18,29.99-12.4,5.19-2.85,10.25-5.92,15.28-9.05,4.77-2.97,10.58-8.27,16.47-7.52,5.9.74,11.93,4.08,17.1,6.88,4.85,2.63,9.38,5.73,13.79,9.03,7.75,5.81,15.63,11.6,25.72,11.71,1.69.02,2.91-1.39,3-3,.61-11.33.27-22.66-1.17-33.92-.65-5.09-1.51-10.13-2.54-15.16-1.29-6.29-2.41-11.95.58-17.95,4.62-9.27,11.55-17.91,18.33-25.66,3.08-3.52,6.31-6.88,9.65-10.15,2.77-2.71,6.07-5.72,6.47-9.83.85-8.82-10.72-9.28-16.65-10.35-10.83-1.97-21.9-3.45-32.61-6-5.84-1.39-8.77-4.31-11.42-9.61s-5.25-10.72-7.87-16.08c-2.33-4.76-4.66-9.53-6.99-14.29-2.04-4.16-3.71-9.84-7.21-13.05-7.92-7.27-14.33,6.53-17.51,11.68-6.65,10.8-13.05,21.76-19.23,32.84-1.88,3.38,3.3,6.41,5.18,3.03h0Z"/>
      <path class="cls-2" d="M66.53,67.39c6.19-9.15,12.39-18.3,18.58-27.44,4.5-6.64,8.99-13.28,13.49-19.92l5.03-7.43c.51-.76,1.74-3.49,2.61-3.85.07-.03.14-.31.21-.31-.96.05.57,2.53.72,2.82,1.86,3.59,3.41,7.34,4.91,11.09,2.55,6.37,4.89,12.82,7.64,19.11,5.13,11.71,11.9,24.45,25.58,26.97,7.59,1.4,15.47,1.58,23.13,2.52,4.25.52,8.49,1.11,12.72,1.75,2.59.4,10.81.37,9.46,3.93-1.03,2.71-5.07,5.72-7.14,7.7-2.71,2.59-5.56,5.02-8.41,7.44-5.6,4.74-11.34,9.39-16.22,14.89-9.45,10.66-15.62,24.21-11.5,38.52,2.21,7.68,6.45,14.6,9.34,22.02,3.39,8.7,5.57,17.83,6.59,27.1l3-3c-6.34.3-12.98-5.82-17.91-9.27-5.27-3.69-10.44-7.52-15.77-11.12-8.65-5.85-20.73-14.92-31.84-12.67-5.54,1.12-10.66,4.6-15.44,7.44-5.22,3.1-10.32,6.38-15.51,9.53-10.52,6.38-21.35,12.09-33.53,14.47l3.69,2.1c-2.27-9.1,1.31-18.86,2.83-27.87,1.41-8.39,2.45-16.84,3.32-25.29.45-4.42.86-8.84,1.25-13.26.31-3.55,1.28-7.67.58-11.24-1.18-6.04-9-9.09-13.79-11.73-6.84-3.76-13.96-7.16-20.26-11.82-2.99-2.22-6.93-5.13-7.71-9-.97-4.81,3.16-6.15,6.99-6.64,17.53-2.24,35.32-3.2,52.92-4.79,3.81-.34,3.85-6.35,0-6-10.23.92-20.46,1.85-30.69,2.77-8.59.78-18.03.54-26.41,2.67C3.63,70.96-.4,75.17.03,80.95c.54,7.15,6.77,11.99,12.19,15.77,7.35,5.13,15.59,8.78,23.28,13.34,1.63.96,4.49,2.14,5.63,3.68,1.28,1.73.87,3.98.71,5.93-.41,5.06-.87,10.11-1.36,15.16-1.02,10.45-2.25,20.89-4.14,31.23-1.66,9.09-4.48,18.09-2.18,27.31.41,1.66,2.13,2.4,3.69,2.1,11.27-2.2,21.59-7.17,31.43-12.95,4.99-2.93,9.87-6.05,14.8-9.08,5.16-3.17,10.79-7.33,16.67-9.01,6.73-1.92,13.55,2.37,19.19,5.61,5.31,3.05,10.37,6.52,15.37,10.06,5.25,3.72,10.44,7.53,15.81,11.07,4.65,3.06,9.36,6.41,15.14,6.14,1.48-.07,3.18-1.32,3-3-1.73-15.75-7.11-29.27-13.47-43.6-3.4-7.65-5.09-15.36-2.51-23.54,2.32-7.35,7.16-13.77,12.52-19.19s11.6-10.25,17.43-15.35c4.48-3.92,11.11-8.92,13.43-14.61,2.15-5.28-2.41-9.22-7.19-10.02-8.27-1.39-16.59-2.56-24.92-3.51s-18.79-.09-25.67-4.94c-6.15-4.33-9.86-12.13-12.93-18.78-3.38-7.32-5.99-14.97-9.06-22.42-1.82-4.43-3.91-12.88-8.81-14.89-5.16-2.12-7.78,3.38-10.1,6.81l-12.48,18.42c-8.05,11.89-16.11,23.78-24.16,35.67-2.17,3.21,3.03,6.21,5.18,3.03h0Z"/>
    </g>
  </g>
</svg>