<?xml version="1.0" encoding="UTF-8"?>
<svg id="Capa_2" data-name="Capa 2" xmlns="http://www.w3.org/2000/svg" viewBox="0 0 197.58 196.9">
  <defs>
    <style>
      .cls-1 {
        fill: #46c36c;
      }

      .cls-2 {
        fill: #fff;
      }
    </style>
  </defs>
  <g id="Capa_1-2" data-name="Capa 1">
    <g>
      <path class="cls-1" d="M48.34,65.2c-7.56-6.71-15.11-13.42-22.67-20.12l-.61,4.71c9.05-5.32,17.97-11.01,27.2-16,3.48-1.88,6.22-3.04,9.65-.17,1.89,1.58,3.63,3.38,5.43,5.07,3.86,3.62,7.73,7.24,11.59,10.87,1.15,1.08,3.11,1.22,4.24,0,7.94-8.58,3.85-20.19,2.82-30.47-.31-3.12-1.1-7.35,1.65-9.23s8.36-1.11,11.69-1.21c8.31-.25,16.62-.5,24.93-.75l-3-3c.53,8.53,1.67,17.19,4.07,25.41,1.4,4.81,3.81,10.45,9.35,11.41,10.53,1.81,11.29-13,17.6-17.7l-3.64-.47c10.06,11.49,21.55,21.51,34.32,29.9v-5.18c-9.8,4.66-19.6,9.32-29.39,13.99-1.74.83-1.91,3.46-.61,4.71,10.39,9.94,22.64,17.35,36.34,21.73l-2.2-2.89c-.09,9.95-.18,19.89-.28,29.84l1.49-2.59c-6.21,3.2-13.29.34-19.86,1.78-4.71,1.03-9.54,4.01-11.36,8.64-1.99,5.07.38,9.56,3.76,13.33,5.45,6.1,11.48,11.77,17.2,17.63v-4.24c-11.63,10.94-23.26,21.88-34.88,32.82l4.71.61c-2.96-6.8-6.23-14.17-12.64-18.41-5.46-3.62-12.48-4.3-17.98-.47-1.14.79-1.7,2.01-1.38,3.39.78,3.3,1.55,6.6,2.33,9.89.47,2,3.03,8.1,2.22,9.98-1.06,2.45-7.55,2.02-9.77,2.17-3.15.22-6.33.32-9.49.04-11.95-1.04-24.99-11.28-19.86-24.5.43-1.11-.26-2.9-1.38-3.39-3.13-1.37-6.26-2.74-9.38-4.11-1.26-.55-2.6-.54-3.64.47-5.07,4.95-10.15,9.91-15.22,14.86h4.24c-8.89-7.7-17.78-15.4-26.66-23.1v4.24c11.01-9.47,22.95-22.56,18.72-38.26-.36-1.35-1.57-2.11-2.89-2.2-12.93-.95-25.85-1.89-38.78-2.84l3,3c-.97-10.69-2.16-28.6,11.06-32.24,6.37-1.75,13.1-.21,19.35-2.76,5-2.04,8.97-5.85,9.8-11.33.57-3.78-5.21-5.41-5.79-1.6-1.36,8.96-11.63,8.47-18.53,8.98-5.94.44-11.53,1.91-15.67,6.46-7.69,8.46-7.19,21.89-6.23,32.49.16,1.71,1.25,2.87,3,3,12.93.95,25.85,1.89,38.78,2.84l-2.89-2.2c3.6,13.34-7.99,24.52-17.17,32.42-1.17,1.01-1.16,3.24,0,4.24,8.89,7.7,17.78,15.4,26.66,23.1,1.24,1.07,3.01,1.2,4.24,0,5.07-4.95,10.15-9.91,15.22-14.86l-3.64.47c3.13,1.37,6.26,2.74,9.38,4.11l-1.38-3.39c-2.79,7.19-.93,15.03,3.63,21.08,5.16,6.84,12.79,10.07,21.17,10.93,4.88.5,9.79.16,14.66-.34,3.33-.34,7.66-.29,9.96-3.19,2.09-2.63,1.43-5.97.75-8.99-1.29-5.71-2.68-11.39-4.02-17.09l-1.38,3.39c11.09-7.73,18.98,8.82,22.41,16.73.8,1.85,3.45,1.79,4.71.61,11.63-10.94,23.26-21.88,34.88-32.82,1.19-1.12,1.11-3.11,0-4.24-4.28-4.38-8.56-8.76-12.83-13.14-3.46-3.54-10.37-8.98-4.95-13.85,3.74-3.36,8.85-2.83,13.46-2.65s9.08-.1,13.38-2.32c.93-.48,1.48-1.57,1.49-2.59.09-9.95.18-19.89.28-29.84.01-1.36-.95-2.49-2.2-2.89-12.72-4.07-24.05-10.97-33.69-20.19l-.61,4.71c9.8-4.66,19.6-9.32,29.39-13.99,2.16-1.03,1.73-4.04,0-5.18-12.35-8.11-23.38-17.85-33.11-28.96-.79-.9-2.63-1.22-3.64-.47-2.73,2.03-4.61,4.59-6.23,7.57-1.42,2.6-2.65,6.78-5.1,8.62-7.25,5.44-10.43-26.44-10.66-30.13-.1-1.58-1.3-3.05-3-3-9.31.28-18.62.56-27.92.84-5.29.16-12.39-.77-15.29,4.81-5.93,11.42,7.27,27.62-2.12,37.77h4.24c-5.07-4.75-10.13-9.52-15.21-14.26-3.28-3.06-6.59-5.93-11.37-5.39-5.62.63-11.13,5.16-15.86,7.94-6.23,3.67-12.47,7.33-18.7,11-1.58.93-2.07,3.41-.61,4.71,7.56,6.71,15.11,13.42,22.67,20.12,2.88,2.56,7.14-1.67,4.24-4.24h0Z"/>
      <path class="cls-1" d="M97.21,68.23c-18.83-.12-36.76,14.37-34.07,34.54,2.4,18,23.29,32.24,40.28,34.05,19.42,2.06,36.4-13.69,42.68-31.07,3.05-8.44,3.03-18.15-2.04-25.83-4.58-6.94-12.3-11.25-20.21-13.28-20.73-5.32-43,2.98-56.8,18.9-2.52,2.91,1.71,7.17,4.24,4.24,9.74-11.25,23.64-18.41,38.64-18.72s32.18,6.4,32.29,23.17c.1,14.93-13.48,31.78-27.66,35.81-15.19,4.32-32.61-5.68-41.28-17.87-5.68-8-5.75-18.31-.28-26.48s14.85-11.53,24.19-11.48c3.86.02,3.87-5.98,0-6h0Z"/>
      <path class="cls-2" d="M53.51,60.5c-7.04-8.64-14.08-17.29-21.12-25.93v4.24c8.72-7.06,18.66-12.11,29.5-15l-2.92-.77c6.18,6.2,11.95,12.79,17.16,19.84,2.87,3.88,5.85,10.44,11.39,5.93,3.64-2.96,3.86-8.76,3.75-13.05-.19-7.4.28-14.14,4.55-20.51,9.87-14.74,32.38-10.62,34.54,7.56.69,5.77-3.82,11.68,1.56,15.9,4.15,3.26,9.95,2.4,14.27,0,3.95-2.18,7.26-5.79,11.85-6.65s9.07,1.01,12.61,3.57c7.3,5.28,11.01,14.46,14.53,22.42l1.79-4.41c-5.62,1.73-11.23,3.47-16.85,5.2-3.82,1.18-8.22,1.51-10.31,5.23-3.39,6.03-1.12,13.99,3.38,18.79,5.81,6.21,14.87,6.73,22.82,6.84,3.53.05,5.53.6,5.46,4.72-.04,2.54-.34,5.11-.52,7.64-.43,6.23-.87,12.46-1.3,18.68l2.2-2.89c-7.99,3.16-15.75-2.22-23.87-.97-4.86.75-10,3.39-12.17,8.03-2.51,5.37.31,10.51,4.22,14.28,6.79,6.53,14.26,12.48,21.35,18.68v-4.24c-11.55,11.03-24.48,20.26-38.7,27.55l4.41,1.79c-2.82-13.13-13.89-23.43-27.52-23.92-1.23-.04-2.65.96-2.89,2.2-1.49,7.55-2.2,15.91-4.6,23.21-1.52,4.62-4.49,5.33-8.81,5.85-2.46.29-4.96.42-7.44.37-5.07-.11-11.24-.99-14.54-5.31-3.86-5.06-1.76-12.16-1.02-17.89,1.22-9.44-2.3-20.27-13.84-18.97s-16.14,14.01-18.76,23.96l5.01-1.32c-11.35-11.49-22.7-22.98-34.04-34.46l-1.32,5.01c13.19-5.31,23.44-15.41,29.15-28.43.68-1.56.32-4.08-1.79-4.41-8.49-1.3-16.97-2.61-25.46-3.91-2.61-.4-5.22-.79-7.83-1.2-1.18-.19-4.21-.2-5-1.09-2.15-2.44,1.45-9.89,2.13-12.35,1.13-4.07,2.25-8.15,3.39-12.22.29-1.04.85-4.17,1.68-4.97,1.82-1.77,4.73-.27,6.76.24,8.52,2.15,17.03,4.29,25.55,6.44,2,.5,3.66-.94,3.8-2.89.39-5.34.78-10.68,1.17-16.02.28-3.85-5.72-3.83-6,0-.39,5.34-.78,10.68-1.17,16.02l3.8-2.89c-5.99-1.51-11.98-3.02-17.98-4.53-4.56-1.15-9.96-3.44-14.73-3.2-3.61.18-5.96,2.49-7.28,5.72-2.16,5.28-3.24,11.21-4.77,16.71-2.02,7.29-6.6,17.71,3.81,20.29,11.8,2.92,24.52,3.8,36.54,5.65l-1.79-4.41c-5.04,11.48-13.82,20.94-25.57,25.67-2.03.82-3.05,3.27-1.32,5.01,11.35,11.49,22.7,22.98,34.04,34.46,1.58,1.6,4.44.86,5.01-1.32,1.68-6.35,3.49-14.79,9.71-18.3,6.92-3.91,11.82,1.25,11.47,8.23-.5,9.98-4.49,20.99,5.08,28.16,7.54,5.64,19.59,5.49,28.37,3.44,5.27-1.23,8.42-4.34,9.77-9.54,1.97-7.59,3.08-15.51,4.6-23.21l-2.89,2.2c11.04.39,19.49,9.05,21.73,19.51.43,1.99,2.78,2.62,4.41,1.79,14.65-7.51,28.01-17.12,39.91-28.49,1.12-1.07,1.2-3.19,0-4.24-5.05-4.42-10.11-8.83-15.16-13.25-3.62-3.16-13.05-9.08-8.1-14.52,3.7-4.05,9.59-3.28,14.33-2.32,5.69,1.16,11.15,2.31,16.74.1,1.33-.52,2.1-1.45,2.2-2.89.37-5.24.73-10.49,1.1-15.73.31-4.42,1.24-9.27.62-13.68-1.12-7.99-8.1-7.45-14.56-7.68-7.95-.29-18.44-2.89-18.62-12.77-.04-2.08.38-3.43,1.91-4.52,1.78-1.26,5.39-1.66,7.49-2.31,4.99-1.54,9.98-3.08,14.98-4.63,2.01-.62,2.58-2.62,1.79-4.41-4.95-11.21-10.83-23.59-23.24-27.92-5.5-1.92-11.26-1.44-16.33,1.41-2.61,1.47-16.96,11.62-14.98,2.83,2.38-10.56-1.86-22.91-11.57-28.37-10.18-5.72-23.36-2.83-30.94,5.78-4.44,5.04-7.08,11.37-7.94,18-.32,2.49,1.4,17.5-2.47,17.55l2.59,1.49c-6.61-9.66-14.02-18.69-22.28-26.98-.76-.76-1.88-1.05-2.92-.77-11.88,3.17-22.6,8.82-32.15,16.54-1.35,1.09-.93,3.1,0,4.24,7.04,8.64,14.08,17.29,21.12,25.93,2.44,3,6.66-1.27,4.24-4.24h0Z"/>
      <path class="cls-2" d="M101.33,67.15c-16.74-2.84-32.35,14.88-33.34,30.63-1.1,17.39,12.9,34.19,28.87,39.52,7.79,2.6,16.41,2.19,23.83-1.35,8.24-3.94,13.03-11.34,16.62-19.45,6.97-15.76,9.78-35.57-7.09-46.03s-38.86-6.37-52.8,6.77c-2.82,2.65,1.43,6.89,4.24,4.24,9.74-9.17,23.73-13.23,36.77-9.63,6.56,1.81,13.29,5.58,16.48,11.84,3.39,6.65,2.34,14.53.31,21.42-4.03,13.66-11.97,27.88-28.01,27.89-14.13,0-27.25-11.59-31.68-24.54-2.76-8.09-1.62-16.07,3.16-23.13s12.28-13.87,21.05-12.39c3.78.64,5.4-5.14,1.6-5.79h0Z"/>
    </g>
  </g>
</svg>