<?xml version="1.0" encoding="UTF-8"?>
<svg id="Capa_2" data-name="Capa 2" xmlns="http://www.w3.org/2000/svg" viewBox="0 0 197.17 197.1">
  <defs>
    <style>
      .cls-1 {
        fill: #46c36c;
      }

      .cls-2 {
        fill: #fff;
      }
    </style>
  </defs>
  <g id="Capa_1-2" data-name="Capa 1">
    <g>
      <path class="cls-1" d="M88.8,14.2c26.65,11.8,52.74,24.79,78.21,38.95,3.38,1.88,6.41-3.3,3.03-5.18-25.47-14.16-51.56-27.16-78.21-38.95-3.5-1.55-6.56,3.62-3.03,5.18h0Z"/>
      <path class="cls-1" d="M150.51,1.42c-21.8,35.58-46.94,68.98-75.21,99.67-2.61,2.84,1.62,7.09,4.24,4.24,28.61-31.06,54.1-64.88,76.15-100.88,2.02-3.3-3.16-6.32-5.18-3.03h0Z"/>
      <path class="cls-1" d="M24.03,25.88C10.35,31.56-.92,43.79.06,59.45s13.67,25.41,28.85,23.59c16.58-1.99,27.51-16,36.8-28.5,4.51-6.07,7.45-12.66,3.09-19.71-3.58-5.79-10.33-9.49-16.67-11.47-15.54-4.87-33.05.18-43.84,12.26-2.57,2.87,1.66,7.13,4.24,4.24,9.44-10.56,24.38-15.01,38.01-10.71,6.72,2.12,17.48,8.15,13.73,16.7-1.43,3.27-4.06,6.15-6.22,8.98-2.68,3.52-5.46,6.96-8.53,10.14-9.65,9.99-29.79,19.78-40.09,4.75C-.66,54.99,11.57,37.5,25.62,31.66c3.51-1.46,1.97-7.27-1.6-5.79h0Z"/>
      <path class="cls-1" d="M18.86,126.47c-11.44,10.65-9.21,31.73-6.54,45.64,1.33,6.94,3.89,14.21,9.16,19.16,6.59,6.2,15.3,6.38,23.81,5.29,17.21-2.2,37.1-9.59,40.58-28.97,2.92-16.27-10.03-28.41-23.59-34.55-14.68-6.65-36.27-11.38-47.55,3.49-2.33,3.08,2.87,6.07,5.18,3.03,8.17-10.76,24.95-6.83,35.67-2.83,11.12,4.14,24.3,12.39,24.72,25.65.53,16.81-16.73,25.07-30.77,27.53-7.36,1.29-16.35,2.9-22.74-2-4.77-3.66-6.97-9.77-8.26-15.43-1.49-6.56-1.84-13.37-1.87-20.08-.04-7.68.5-16.14,6.46-21.69,2.83-2.64-1.42-6.87-4.24-4.24h0Z"/>
      <path class="cls-1" d="M116.71,137.82c-9.13,11.17-9.86,26.78-3.99,39.68,7.26,15.95,22.48,21.4,39.2,19.1,17.88-2.45,36.11-11.31,42.88-29.09,6.06-15.91.4-34.01-15.92-40.68-20.45-8.36-40.13,4.61-54.48,18.35-2.8,2.67,1.45,6.91,4.24,4.24,10.74-10.27,24.56-20.99,40.38-19.03,15.42,1.91,24.98,15.27,21.52,30.51s-17.76,25.02-32.77,28.55c-14.1,3.32-29.46,2.59-37.69-10.84-6.66-10.87-7.48-26.32.88-36.54,2.43-2.97-1.8-7.23-4.24-4.24h0Z"/>
      <path class="cls-2" d="M94.49,7.23c26.66,11.91,51.78,27.03,74.76,45.05,3,2.36,7.28-1.86,4.24-4.24C150.09,29.68,124.69,14.19,97.52,2.05c-3.5-1.56-6.55,3.61-3.03,5.18h0Z"/>
      <path class="cls-2" d="M85.24,102.67c14.89-16.52,29.78-33.04,44.67-49.56,12.54-13.91,25.04-28,31.72-45.78,1.36-3.62-4.44-5.18-5.79-1.6-6.76,17.97-20.17,32.03-32.81,46.04-14.02,15.55-28.03,31.1-42.05,46.65-2.58,2.86,1.65,7.12,4.24,4.24h0Z"/>
      <path class="cls-2" d="M25.84,22.2C10.94,23.82.34,37.35,1.8,52.24c1.56,15.9,14.39,25.77,29.61,27.34,16.68,1.72,33.43-3.67,42.5-18.37,3.92-6.35,7.4-14.79,5.87-22.37s-8.04-14.47-15.06-17.96c-16.97-8.42-35.72-.36-46.8,13.61-2.37,2.99,1.84,7.27,4.24,4.24,9.94-12.54,27.18-20.68,42.11-11.24,8.44,5.34,11.54,13.82,8.1,23.22-2.72,7.43-7.63,14.43-14.59,18.41-12.58,7.19-35.08,7.53-44.9-4.65s-4.44-34.4,12.96-36.29c3.8-.41,3.84-6.42,0-6h0Z"/>
      <path class="cls-2" d="M38.4,124.55c-17.38.95-28.58,19.15-34.64,33.64-6.27,15,3.46,30.62,18.07,35.64s37.09,1.55,48.83-9.78c10.44-10.08,14.07-26.99,8.37-40.37-6.34-14.87-24.24-23.45-39.56-17.45-3.56,1.39-2.01,7.2,1.6,5.79,14.64-5.74,30.97,4.06,34.07,19.21,3.5,17.08-7.61,32.13-23.84,36.57-15.53,4.25-39.99,2.95-43.4-17.06-1.46-8.59,4.59-17.02,8.96-23.96,4.9-7.79,11.68-15.69,21.54-16.23,3.84-.21,3.86-6.21,0-6h0Z"/>
      <path class="cls-2" d="M133.95,125.45c-18.19,4.14-28.57,23.21-23.8,40.94,4.85,18.03,23.51,27.05,41.19,24.98,17.04-2,32.53-13.58,39.97-28.95,7.92-16.35,6.86-36.64-10.78-45.77-20.38-10.56-44.19-.82-60.3,12.95-2.94,2.51,1.32,6.74,4.24,4.24,12.09-10.34,28.45-18.16,44.7-14.85,7.28,1.48,14.5,5.35,18.37,11.92,4.21,7.16,3.04,16.5.42,24.03-4.5,12.96-15.27,23.75-28.19,28.35-13.64,4.85-31.47,2.51-40.1-10.23-10.5-15.48-2.54-37.64,15.86-41.83,3.76-.86,2.17-6.64-1.6-5.79h0Z"/>
    </g>
  </g>
</svg>