<?xml version="1.0" encoding="UTF-8"?>
<svg id="Capa_1" data-name="Capa 1" xmlns="http://www.w3.org/2000/svg" viewBox="0 0 350.31 350.31">
  <defs>
    <style>
      .cls-1 {
        fill: #e3035a;
      }

      .cls-2 {
        fill: #41b6a3;
      }

      .cls-3 {
        fill: #0b092b;
      }

      .cls-4 {
        fill: #e60f9e;
      }
    </style>
  </defs>
  <g>
    <rect class="cls-3" x="29.11" y="25.39" width="291.9" height="299.59" rx="43.25" ry="43.25"/>
    <path class="cls-4" d="M277.76,327.98H72.37c-25.5,0-46.25-20.75-46.25-46.25V68.64c0-25.5,20.75-46.25,46.25-46.25h205.39c25.5,0,46.25,20.75,46.25,46.25v213.09c0,25.5-20.75,46.25-46.25,46.25ZM72.37,28.39c-22.19,0-40.25,18.06-40.25,40.25v213.09c0,22.2,18.06,40.25,40.25,40.25h205.39c22.19,0,40.25-18.06,40.25-40.25V68.64c0-22.2-18.06-40.25-40.25-40.25H72.37Z"/>
  </g>
  <polygon class="cls-2" points="220.4 246.52 220.4 350.06 246.4 350.06 246.4 220.52 .19 220.52 .19 246.52 220.4 246.52"/>
  <rect class="cls-1" x=".19" y="104.35" width="349.75" height="25"/>
  <rect class="cls-2" x="220.49" y="221.02" width="129.82" height="25"/>
</svg>