<?xml version="1.0" encoding="UTF-8"?>
<svg id="Capa_1" data-name="Capa 1" xmlns="http://www.w3.org/2000/svg" viewBox="0 0 426.17 421.5">
  <defs>
    <style>
      .cls-1 {
        fill: #d1d1d1;
        stroke: #e60f9e;
        stroke-miterlimit: 10;
        stroke-width: .25px;
      }

      .cls-2 {
        fill: #e3035a;
      }

      .cls-3 {
        fill: #fff;
      }

      .cls-4 {
        fill: #41b6a3;
      }

      .cls-5 {
        fill: none;
      }
    </style>
  </defs>
  <g>
    <rect class="cls-1" x="182.93" y="22" width="220.39" height="399.38" rx="43.25" ry="43.25"/>
    <path class="cls-3" d="M394.2,405.38h-160.61c-17.63,0-31.97-20.75-31.97-46.25V46.25c0-25.5,14.34-46.25,31.97-46.25h160.61c17.63,0,31.97,20.75,31.97,46.25v312.88c0,25.5-14.34,46.25-31.97,46.25ZM233.6,6c-15.34,0-27.82,18.06-27.82,40.25v312.88c0,22.19,12.48,40.25,27.82,40.25h160.61c15.34,0,27.82-18.06,27.82-40.25V46.25c0-22.2-12.48-40.25-27.82-40.25h-160.61Z"/>
  </g>
  <rect class="cls-4" x="0" y="256.27" width="279.53" height="26"/>
  <rect class="cls-2" x="0" y="140.11" width="279.53" height="25"/>
  <circle class="cls-4" cx="273.43" cy="269.27" r="41.26"/>
  <circle class="cls-2" cx="273.43" cy="152.61" r="41.26"/>
  <rect class="cls-5" x=".28" y="35.81" width="350" height="350"/>
</svg>