<?xml version="1.0" encoding="UTF-8"?>
<svg id="Capa_1" data-name="Capa 1" xmlns="http://www.w3.org/2000/svg" viewBox="0 0 204.1 325.76">
  <defs>
    <style>
      .cls-1 {
        fill: #78fe45;
      }
    </style>
  </defs>
  <path class="cls-1" d="M94.08,81.99C89.92,27.99,89.92.66,94.08.01c4.26-.67,12.89,26.66,25.89,81.98,22.29-17.98,44.58-35.95,66.88-53.93,5.75,9.35,11.51,18.7,17.26,28.04-18.64,14.33-37.52,29.42-56.57,45.3-8.64,7.2-17.11,14.4-25.41,21.57,1.34,21.69,1.91,40.03,2.16,53.93.24,13.4.4,22.4,0,34.52-.74,22.54-2.69,34.1-4.31,51.78-1.35,14.68-2.69,35.99-2.16,62.56-8.95-4.31-17.9-8.63-26.85-12.94v-181.21C61.79,109.32,32.63,87.02,3.47,64.73c-4.29-9.43-4.95-19.91,0-25.89,7.21-8.71,27.51-9.27,43.15,6.47,15.82,12.22,31.64,24.45,47.46,36.67Z"/>
</svg>