<?xml version="1.0" encoding="UTF-8"?>
<svg id="Capa_1" data-name="Capa 1" xmlns="http://www.w3.org/2000/svg" viewBox="0 0 200.52 325.76">
  <defs>
    <style>
      .cls-1 {
        fill: #78fe45;
      }
    </style>
  </defs>
  <path class="cls-1" d="M84.61,91.93c8.88-7.77,17.77-15.54,26.65-23.32,9.99,12.88,19.99,25.76,29.98,38.64-3.87,9.88-10.37,23.35-21.32,37.31-11.49,14.66-23.67,24.48-32.64,30.64-12.54-10.09-25.82-21.79-39.3-35.31C28.59,120.48,12.78,101.36,0,83.94c8.39-14.78,18.1-30.44,29.31-46.63C38.71,23.74,48.12,11.31,57.29,0c11.79,3.25,28.63,8.22,48.63,15.32,20.41,7.25,30.82,11,41.3,17.32,10.82,6.53,27.06,18.66,41.97,41.3,2.5,20.67,4.74,42,6.66,63.95,1.99,22.83,3.53,45.05,4.66,66.62-27.54,40.42-55.07,80.83-82.61,121.25-5.88-6-11.77-11.99-17.65-17.99,14.58-22.18,29.2-45.71,43.63-70.62,7.69-13.27,15.02-26.39,21.98-39.31-6.63-42.28-9.05-67-9.33-81.94-.08-4.03-.1-12.84-4-23.32-2.33-6.25-4.9-10.04-13.32-22.65-2.74-4.11-8.26-12.37-15.99-23.98-15.1-5.11-30.2-10.21-45.3-15.32-9.55,13.77-19.1,27.54-28.65,41.3-.58.6-4.82,5.19-4,11.99.81,6.75,5.95,10.2,6.66,10.66,10.44,11.55,20.87,23.09,31.31,34.64,3.37-3.05,7.51-7.84,9.9-14.66,1.57-4.47,4.63-13.21,0-18.65-2.56-3-6.41-3.77-8.57-4Z"/>
</svg>