<?xml version="1.0" encoding="UTF-8"?>
<svg id="Capa_1" data-name="Capa 1" xmlns="http://www.w3.org/2000/svg" viewBox="0 0 196.45 325.76">
  <defs>
    <style>
      .cls-1 {
        fill: #78fe45;
      }
    </style>
  </defs>
  <path class="cls-1" d="M196.45,126.82c-3.5-5.01-8.92-13.05-14.92-23.3-13.31-22.72-18.11-36.84-29.84-61.25-4.8-9.99-12.2-24.69-22.38-42.27-11.03,5.82-53.08,28.9-78.33,64.66-9.16,12.97-16.16,27.35-16.16,27.35-7.96,16.34-12.36,31.14-14.92,42.27,20.72,24.26,41.45,48.51,62.17,72.77C54.71,246.62,27.35,286.19,0,325.76h37.3c23.62-26.53,47.25-53.05,70.87-79.58,21.14,22.38,42.27,44.76,63.41,67.14,8.29-7.46,16.58-14.92,24.87-22.38-20.72-27.97-41.45-55.93-62.17-83.9,20.72-26.74,41.45-53.48,62.17-80.23ZM110.96,186.09c-11.83-9.68-21.22-18.34-27.98-24.87-18.6-17.96-20.75-23.15-21.76-27.35-2.75-11.38,0-27.35,0-27.35l28.91-28.91c6.94-6.94,13.88-13.88,20.83-20.83,2.12.62,5.26,1.72,8.7,3.73,9.99,5.84,14.55,14.72,20.52,26.73,4.53,9.13,7.14,16.74,11.19,28.6,2.19,6.42,3.86,11.8,4.97,15.54-3.79,2.65-9.28,6.9-14.92,13.06-5.89,6.43-8.6,11.27-14.92,20.52-3.54,5.17-8.74,12.5-15.54,21.14Z"/>
</svg>