<?xml version="1.0" encoding="UTF-8"?>
<svg id="Capa_1" data-name="Capa 1" xmlns="http://www.w3.org/2000/svg" viewBox="0 0 120.55 325.76">
  <defs>
    <style>
      .cls-1 {
        fill: #78fe45;
      }
    </style>
  </defs>
  <path class="cls-1" d="M62.25,0c-2.3.2-4.23,13.08-3.52,63.04,10.56,11.2,21.12,22.4,31.68,33.6.43,17.6.85,35.2,1.28,52.8-10.13,12.05-20.27,24.11-30.4,36.16,4.64,6.29,9.28,12.59,13.92,18.88,6.98-5.91,14.55-13.01,22.24-21.44,7.33-8.04,13.47-15.85,18.56-23.04,1.94-11.87,3.48-25.16,4.16-39.68.54-11.57.46-22.39,0-32.32-8.26-6.71-19.64-17.28-30.53-32.64-2.03-2.87-4.42-6.42-6.91-10.56C67.24,19.07,65.1-.24,62.25,0Z"/>
  <path class="cls-1" d="M41.45,107.2c5.76,6.61,11.52,13.23,17.28,19.84-5.81,9.94-11.55,17.1-15.68,21.76-8.25,9.32-15.04,14.3-23.04,26.24-2.84,4.23-4.85,7.88-6.08,10.24v8c7.39,9.59,16.47,20.09,27.52,30.72,7.93,7.63,15.71,14.2,23.04,19.84.03,2.86.03,5.74,0,8.64-.29,26.13-3.17,50.63-7.68,73.28-2.33-1.79-5.53-4.77-7.68-9.28-2.91-6.1-2.41-11.85-2.24-14.4.5-7.5.26-18.86-2.56-36.8-5.77-6.93-12.86-14.5-21.44-22.08-5.85-5.17-17.51-9.62-22.89-13.44v-76.8c11.84-15.25,29.61-30.51,41.45-45.76Z"/>
</svg>