<?xml version="1.0" encoding="UTF-8"?>
<svg id="Capa_1" data-name="Capa 1" xmlns="http://www.w3.org/2000/svg" viewBox="0 0 218.05 325.76">
  <defs>
    <style>
      .cls-1 {
        fill: #78fe45;
      }
    </style>
  </defs>
  <path class="cls-1" d="M45.55,24.84c-1.15,3.59-2.18,8.56-1.62,14.37,1.67,17.53,16.25,27.61,18.79,29.31-.55-3.44-1.49-8.1-3.14-13.48-2.05-6.67-4.29-11.5-6.33-15.83-1.83-3.89-4.34-8.82-7.69-14.37Z"/>
  <g>
    <path class="cls-1" d="M109.19,128.92v36.67c3.58,1.13,8.13,2.22,13.48,2.7,4.29.38,8.12.29,11.33,0,2.06-5.28,5.43-16.05,3.78-29.66-1.33-10.93-5.35-19.1-8.09-23.73-3.11,2.47-6.52,5.01-10.25,7.55-3.54,2.41-6.97,4.56-10.25,6.47Z"/>
    <path class="cls-1" d="M196.56,97.1c-5.92-7.71-11.85-13.91-17.26-18.88-12.21-11.22-15.5-10.38-26.43-21.03-10.81-10.54-11.54-15.2-18.88-17.26-7-1.96-13.32.33-21.03,3.24-7.24,2.73-11.84,5.6-26.43,15.64-18.75,12.91-23.73,16.82-33.98,22.65-6.62,3.76-12.18,6.47-15.64,8.09v105.16c11.17,8.08,19.98,14.86,25.79,19.41,14.56,11.42,25.31,20.66,41.08,25.89,3.85,1.27,7.81,2.25,12.63,2.16,5.25-.1,10.91-1.45,21.79-7.55,11.85-6.64,20.04-13.37,22.75-15.64,7.23-6.06,16.66-14.88,26.43-26.96,3.75-12.4,7.34-27.86,9.17-45.84,1.93-19,1.36-35.69,0-49.08ZM152.87,192.56c-12.54,8.64-24.6,13.93-34.24,17.26-4.97-2.06-10.11-4.39-15.37-7.01-13.99-6.98-26.01-14.65-36.13-22.11-2.52-9.59-4.91-22.98-4.31-38.97.43-11.41,2.27-21.22,4.31-28.98,8.73-5.05,17.9-10.11,27.5-15.1,13.93-7.24,27.45-13.68,40.45-19.41,3.21,5.53,8.33,12.88,16.18,19.95,5.38,4.85,10.67,8.32,15.1,10.79,1.26,23.19,2.52,46.38,3.78,69.57-4.75,4.52-10.47,9.34-17.26,14.02Z"/>
    <path class="cls-1" d="M170.13,57.2v6.47c2.25.55,5.55.99,9.17,0,5.06-1.39,7.31-4.67,14.02-12.4,12.05-13.89,12.53-12.23,14.56-16.72,2.3-5.09,2.02-7.96,5.93-16.72,1.45-3.24,2.82-5.83,3.78-7.55-.76-1.62-2.21-4.17-4.85-6.47-2.19-1.9-4.72-4.1-8.09-3.78-4.1.39-6.47,4.22-6.85,4.85-.92,2.32-2.27,5.68-3.94,9.71-.45,1.08-5.08,12.26-7.55,17.54-2.81,6.01-7.63,14.7-16.18,25.07Z"/>
    <path class="cls-1" d="M165.28,223.84c-.19,6.29.29,16.76,4.85,28.58,1.98,5.12,5.72,14.52,14.56,23.19,12.14,11.9,26.46,15.15,32.9,16.18.41-2.36.78-6,0-10.25-.76-4.14-2.26-6.94-8.63-16.72-8.73-13.41-8.95-12.82-11.16-17.26-3.05-6.12-2.97-7.92-6.15-12.4-2.27-3.2-5.08-7.16-10.19-9.71-6.64-3.31-13.27-2.28-16.18-1.62Z"/>
    <path class="cls-1" d="M53.25,215.75c-2.26-1.32-8.69,5.45-16.32,13.48-5.09,5.35-8.36,9.4-11.33,12.95-4.31,5.16-10.62,12.44-18.88,21.03-2.15,6.72-4.14,14.68-5.39,23.73-2.12,15.35-1.39,28.69,0,38.83,1.53-.23,3.73-.76,5.93-2.16,5.87-3.74,6.03-10.09,8.63-16.72,5.54-14.14,15.28-12.04,23.73-29.66,1.83-3.82,2.75-6.79,4.15-11.33,3.45-11.14,2.91-15.23,5.55-28.58,2.98-15.07,5.77-20.49,3.92-21.57Z"/>
  </g>
</svg>